<svg xmlns="http://www.w3.org/2000/svg" width="400" height="339" viewBox="0 0 400 339">
  <g id="_15" data-name="15" transform="translate(-600 -484)">
    <g id="BG" transform="translate(600.358 484.354)">
      <rect id="Rectángulo_5058" data-name="Rectángulo 5058" width="400" height="339" transform="translate(-0.358 -0.354)" fill="#fdd835"/>
    </g>
    <g id="Grupo_54156" data-name="Grupo 54156" transform="translate(610 532)">
      <g id="Grupo_54149" data-name="Grupo 54149" transform="translate(0 1.845)">
        <path id="Trazado_101873" data-name="Trazado 101873" d="M334.886,166.6c-28.154,11.5-59.789-2.447-100.572-20.423-21.044-9.278-44.9-19.793-72.484-28.863C70.307,87.236,27.119,189.036,26.694,190.066l-4.239-1.746c.442-1.071,45.3-106.744,140.809-75.355,27.8,9.14,51.757,19.7,72.9,29.021,50.682,22.34,84.158,37.09,115.134,8.49,16.876-15.588,19.664-37.536,7.452-58.717-11.933-20.7-34.319-32.885-50.961-27.733-16.251,5.035-26.07,15.734-26.87,29.354-.8,13.641,7.706,27.191,20.694,32.951,8.728,3.876,17.88-.554,20.96-7.115,3.034-6.473-.438-12.958-9.3-17.343l2.034-4.11c13.412,6.639,14.529,16.759,11.416,23.4-4,8.523-15.792,14.317-26.971,9.357-14.7-6.519-24.324-21.906-23.411-37.415.921-15.634,11.9-27.825,30.092-33.464,18.914-5.852,43.113,6.969,56.292,29.825,13.354,23.165,10.245,47.235-8.319,64.373A64.9,64.9,0,0,1,334.886,166.6Z" transform="translate(-22.455 -58.234)"/>
      </g>
      <g id="Grupo_54150" data-name="Grupo 54150" transform="translate(0.238 70.546)">
        <path id="Trazado_101874" data-name="Trazado 101874" d="M154.593,213.154c-.146.063-.288.121-.433.179a60.4,60.4,0,0,1-46.514-.579A49.076,49.076,0,0,1,81.884,148.3a39.779,39.779,0,0,1,52.161-20.852,32.28,32.28,0,0,1,16.926,42.333A26.281,26.281,0,0,1,116.5,183.562l1.8-4.214a21.544,21.544,0,0,0,16.584.2l.154-.063a21.5,21.5,0,0,0,11.712-11.516,27.686,27.686,0,0,0-14.513-36.315A35.176,35.176,0,0,0,86.1,150.106a44.493,44.493,0,0,0,23.353,58.43,55.836,55.836,0,0,0,43.009.538l.4-.163a55.8,55.8,0,0,0,30.384-29.867A70.814,70.814,0,0,0,146.074,86.05C102.115,67.2,46.348,90.789,26.726,136.536l-4.214-1.8C43.46,85.9,100.873,61.676,147.879,81.836a75.388,75.388,0,0,1,39.578,99.012A60.343,60.343,0,0,1,154.593,213.154Z" transform="translate(-22.512 -74.717)"/>
      </g>
      <g id="Grupo_54151" data-name="Grupo 54151" transform="translate(85.25 69.968)">
        <path id="Trazado_101875" data-name="Trazado 101875" d="M213.122,228.576a37.719,37.719,0,0,1-23.386,1.492c-13.458-3.393-37.761-17.034-49.315-70.266-20.235-93.3-93.54-80.515-96.654-79.923l-.859-4.505c.8-.154,80.791-14.3,102,83.454,11.024,50.823,33.518,63.664,45.951,66.795,11.762,2.963,23.94-.475,31.026-8.757,5.189-6.064,6.46-13.537,3.493-20.493-2.884-6.773-8.307-10.486-14.871-10.186-6.106.279-11.358,4.047-13.079,9.374-1.771,5.493,1.634,8.94,5.093,10.22,3.326,1.23,7.423.767,8.79-2.513l4.23,1.775c-2.492,5.935-9.236,7.027-14.613,5.035-5.593-2.071-10.441-7.936-7.861-15.925,2.3-7.14,9.228-12.179,17.226-12.545,8.461-.383,15.676,4.464,19.3,12.966,3.676,8.623,2.138,17.834-4.226,25.274A31.867,31.867,0,0,1,213.122,228.576Z" transform="translate(-42.909 -74.578)"/>
      </g>
      <g id="Grupo_54152" data-name="Grupo 54152" transform="translate(24.67 58.658)">
        <path id="Trazado_101876" data-name="Trazado 101876" d="M294.1,190.1a29.828,29.828,0,0,1-3.626,1.213c-23.044,6.1-47.068-17.155-67.774-39.428-17.305-18.618-71.4-68.337-113.292-74.78-39.245-6.039-77.365,32.66-77.744,33.051l-3.288-3.2c1.617-1.671,40.133-40.783,81.729-34.385,43.188,6.639,98.346,57.25,115.955,76.189,19.8,21.3,42.65,43.567,63.244,38.115A21.4,21.4,0,0,0,305.736,166.5c.067-6.023-2.826-13.312-11.137-15.709-5.689-1.638-12.562-.175-16.355,3.476a9.357,9.357,0,0,0-2.551,9.482c1.034,4.151,3.418,6.727,6.719,7.248A7.75,7.75,0,0,0,290,167.857c1.155-1.851.921-4.026-.671-6.289l3.751-2.638c2.659,3.78,2.951,7.919.809,11.353a12.3,12.3,0,0,1-12.191,5.239c-5.156-.813-8.965-4.706-10.449-10.67a13.9,13.9,0,0,1,3.814-13.887c4.976-4.793,13.529-6.677,20.806-4.581,9.024,2.6,14.563,10.328,14.454,20.164A25.828,25.828,0,0,1,294.1,190.1Z" transform="translate(-28.374 -71.864)"/>
      </g>
      <g id="Grupo_54153" data-name="Grupo 54153" transform="translate(334.518 0)">
        <path id="Trazado_101877" data-name="Trazado 101877" d="M137.453,94A14.788,14.788,0,0,1,119.081,87.7a12.265,12.265,0,0,1,4.514-16.751l2.284,3.972a7.679,7.679,0,0,0-2.822,10.491,10.185,10.185,0,0,0,13.9,3.743A13.314,13.314,0,0,0,141.842,71a17.19,17.19,0,0,0-23.474-6.323A22.05,22.05,0,0,0,110.253,94.8l-3.976,2.288A26.643,26.643,0,0,1,116.084,60.7a21.779,21.779,0,0,1,29.734,8.015,17.907,17.907,0,0,1-6.581,24.411A14.4,14.4,0,0,1,137.453,94Z" transform="translate(-102.715 -57.791)" fill="#1b2a47"/>
      </g>
      <g id="Grupo_54154" data-name="Grupo 54154" transform="translate(127.251 200.324)">
        <path id="Trazado_101878" data-name="Trazado 101878" d="M78.985,152.5a21.745,21.745,0,0,1-7.544,1.6,17.883,17.883,0,0,1-18.447-17.3,14.757,14.757,0,0,1,14.279-15.225,12.258,12.258,0,0,1,12.654,11.87l-4.585.146a7.674,7.674,0,0,0-7.919-7.431,10.172,10.172,0,0,0-9.845,10.495,13.284,13.284,0,0,0,13.712,12.858,17.184,17.184,0,0,0,16.626-17.73,22.061,22.061,0,0,0-22.753-21.34l-.15-4.581A26.638,26.638,0,0,1,92.5,131.643,21.815,21.815,0,0,1,78.985,152.5Z" transform="translate(-52.986 -105.854)"/>
      </g>
      <g id="Grupo_54155" data-name="Grupo 54155" transform="translate(85.403 208.789)">
        <path id="Trazado_101879" data-name="Trazado 101879" d="M71.406,154.922a17.841,17.841,0,0,1-6.96,1.317,21.774,21.774,0,0,1-21.5-22.048,26.634,26.634,0,0,1,26.979-26.3l-.058,4.585A22.051,22.051,0,0,0,47.532,134.25,17.191,17.191,0,0,0,64.5,151.655a13.312,13.312,0,0,0,13.458-13.121,10.168,10.168,0,0,0-10.045-10.3,7.671,7.671,0,0,0-7.781,7.581l-4.585-.058a12.26,12.26,0,0,1,12.42-12.108,14.758,14.758,0,0,1,14.575,14.946A17.911,17.911,0,0,1,71.406,154.922Z" transform="translate(-42.946 -107.885)"/>
      </g>
    </g>
  </g>
</svg>
