<svg xmlns="http://www.w3.org/2000/svg" width="400" height="339" viewBox="0 0 400 339">
  <g id="_16" data-name="16" transform="translate(-1020 -484)">
    <rect id="Rectángulo_5057" data-name="Rectángulo 5057" width="400" height="339" transform="translate(1020 484)" fill="#fbede4"/>
    <g id="Grupo_53377" data-name="Grupo 53377" transform="translate(1044 512)">
      <path id="Trazado_99465" data-name="Trazado 99465" d="M617.273,272.079a117.184,117.184,0,0,1,85.869,37.3L652.866,316l57.094,7.516,4.938.651A117.085,117.085,0,0,1,721.93,336.1l-25.874,3.406,29.286,3.856a118,118,0,0,1,7.419,68.03l-25.69,2.928-57.1,6.508,57.1,6.508,20.69,2.361a117.538,117.538,0,0,1-181.527,53.5c30.43-43.846,8.236-123.539-12.314-176.436a117.144,117.144,0,0,1,83.353-34.682" transform="translate(-382.116 -253.117)" fill="#c6664e" fill-rule="evenodd"/>
      <path id="Trazado_99466" data-name="Trazado 99466" d="M125,876.815c5.227-4.208,10.545-8.382,15.775-12.454q7.74-6.02,15.2-11.794c21.224.761,41.007,1.476,59.508,2.133q-19.526-5.5-40.817-11.535c1.221-2.437,2.4-4.854,3.657-7.259q34.818.381,64.475.709c-14.715-2.583-30.2-5.3-46.651-8.187q16.785-6.208,32.225-11.945c22.987,2.419,44.118,4.632,63.612,6.666q28.276,2.952,52.389,5.467c14.234,1.489,27.669,2.9,40.172,4.194q18.321,1.9,34.466,3.581,1.685,3.42,3.3,6.792c1.068,2.235,2.18,4.477,3.269,6.7-2.694.09-5.449.189-8.3.28,3.429,2.5,6.733,4.973,10.066,7.4l3.3,4.205-20.863,4.343,31.607,2.215c1.41,1.7,2.787,3.374,4.232,5.046-14.427.158-30.138.336-47.451.52-17.8.193-37.385.4-59.058.636q-19.477.21-41.617.453-22.507.236-48.189.51-26.689.285-57.229.613-31.214.324-67.076.7" transform="translate(-125.001 -595.423)" fill="#2e081f" fill-rule="evenodd"/>
      <path id="Trazado_99467" data-name="Trazado 99467" d="M363.281,397.641a60.854,60.854,0,0,1-.779-12.4,58.467,58.467,0,0,1,9.964-31.232l3.225-4.731c-3.315-7.4-7.924-12.235-14.6-15.62,11.949-1.655,23.685-.362,32.788,8.977a18.315,18.315,0,0,1,1.757-.989c.975-7.55,5.294-13.379,12.422-16.055-4.88-2.992-10.8-8.385-15.425-9.713-2.691-.774-6.415-.26-9.459-.085.126-8.324.858-11.021,4.5-18.569,2.42-5.005,3.85-8.683,3.8-14.383l-.012-1.281,2.968-6.062c-7.177-9.491-6.622-17.932-6.21-29.352,7.016,3.558,13.177,7.066,21.186,7.384-2.712-3.383-3.835-6.57-5.335-10.285l9.418.981a36.792,36.792,0,0,1-2.723-10.884c6.7,3.9,18.251,8.977,26.565,9.024,6.255-6.047,11.981-12.5,17.652-19.093L456.94,221c6.205,9.553,10.983,17.646,11.713,29.364,9.41,5.327,21.965,13.481,29.331,21.233l1.646,1.734a34.66,34.66,0,0,1-2.18,10.84l4.077-1.652,16.125,3.4,1.269,10.644,8.721,4.877,3.891,49.955L515.861,400c2.624,2.548,6.159,6.249,7.367,9.112a24.967,24.967,0,0,1,1.486,5.172c2.534,1.4,4.521,3.628,4.617,6.707.053,1.6.059,3.193.053,4.789a28.85,28.85,0,0,0,5.178,5.332c9.112,6.874,8.631,5.14,11.543,17.722.318,1.369-.038.52,1.267,1.783a34.131,34.131,0,0,1,9.7,19.187,3.718,3.718,0,0,1-.531,3.108,8.942,8.942,0,0,1-4.471,4.092,10.088,10.088,0,0,1-8.435-.56,16.209,16.209,0,0,1-11.085-.636c-4.757,1.321-9.663.379-13.163-3.36a3.822,3.822,0,0,1-1.29-2.346c-1.649-6.343-.321-13.881,4.935-18.087a2.956,2.956,0,0,0-.336-.911c-.893-1.025-5.1-3.178-6.628-3.937-6.514,2.54-13.321,2.554-20.086,1-4.655-1.071-11.677-1.859-15.407-4.862-10.393,12.27-25.433,17.7-41.342,17.027-14.105-.6-29.545-4.784-40.637-13.942l-3.651,3.83c-3.1,4.051-8.2,7.722-13.487,7.51a23.214,23.214,0,0,1-10.008-3.1,14.858,14.858,0,0,1-7.708-.455c-4.781.306-9.833-1.267-11.394-6.334l-.163-2.509c1.085-6.374,5.516-12.48,11.8-13.922-4.384-1.865-6.067-3.575-9.088-6.739.826-9.159,2.948-19.322,8.388-27.027" transform="translate(-267.845 -221)" fill="#2e081f" fill-rule="evenodd"/>
      <path id="Trazado_99468" data-name="Trazado 99468" d="M727.127,445.1l-11.905,39.13,3.079,14.891,21.583,1.958,5.764-14.756-3.981-40.16s-7.883-2.346-14.54-1.062m19.525-2.837,3.581,45.989q-7.929,24.6-15.859,49.19a43.965,43.965,0,0,1-17.133-1.337l-8.5-54.844L722.5,440.4A49.366,49.366,0,0,1,746.653,442.258Z" transform="translate(-492.037 -358.502)" fill="#a98167" fill-rule="evenodd"/>
      <path id="Trazado_99469" data-name="Trazado 99469" d="M775.447,442.439l3.582,45.989q-7.929,24.6-15.86,49.19a41.708,41.708,0,0,1-8.634.175l2.566-1.81,9.74-31.807-9.173-3.922,11.012,1,5.764-14.756-4.22-42.62-7.527-3.905a50.4,50.4,0,0,1,12.751,2.466" transform="translate(-520.832 -358.684)" fill="#785451" fill-rule="evenodd"/>
      <path id="Trazado_99470" data-name="Trazado 99470" d="M833.67,826.347s-1.5,3-5.476,1.184c.007-.058.013-.119.015-.177,0,0-2.472-9.3-8.16-13.28,0,0,4.6,7.343,5.6,12.5-7.962,3.678-12.226-6.064-14.681-12.386a22.747,22.747,0,0,0,4.034,11.508c-5.858,2.425-11,.062-9.971-7.235a9.09,9.09,0,0,1,5.758-7.7s.106-5.279-2.3-7.655c-1.524-1.5-5.28-3.531-7.837-4.822l6.407-11.321s7.419,5.98,10.983,8.653,4.235,9.632,5.055,12.457a26.209,26.209,0,0,0-7.525,1.716c6.089-.812,9.121.876,9.133.882a22.25,22.25,0,0,1,8.963,15.676" transform="translate(-549.83 -576.86)" fill="#af9498" fill-rule="evenodd"/>
      <path id="Trazado_99471" data-name="Trazado 99471" d="M818.166,855.283a22.748,22.748,0,0,0,4.034,11.508c-5.858,2.425-11,.062-9.971-7.234a9.184,9.184,0,0,1,4.737-7.23,1.51,1.51,0,0,1-.125,1.159s-3.578,3.584-1.7,8.3c.651,1.634,3.111,4.468,3.356,1.357.085-1.056-1.135-5.566-.33-7.863m9.077-.111v0l0,0c.137.222,4.615,7.419,5.6,12.492-7.962,3.678-12.226-6.065-14.681-12.386a23.708,23.708,0,0,0,5.222,5.344C827.15,863.6,827.716,859.16,827.243,855.172Zm13.621,12.273s-1.5,3-5.476,1.184c.006-.058.012-.119.015-.177a34.223,34.223,0,0,0-3.389-7.854l.158.044s4.27,2.989,7.991,3.234A25.942,25.942,0,0,1,840.864,867.446Z" transform="translate(-557.024 -617.959)" fill="#856f79" fill-rule="evenodd"/>
      <path id="Trazado_99472" data-name="Trazado 99472" d="M806.932,825.723a8.751,8.751,0,0,1,3.861-2.851s.106-5.28-2.3-7.655c-1.524-1.5-5.28-3.531-7.837-4.821l2.358-4.171a76.714,76.714,0,0,0,9.13,5.081c5.239,2.364,6.917,9.509,6.917,9.509a24.494,24.494,0,0,0-3.485,1.086q1.02-.135,1.927-.184a16.783,16.783,0,0,1,6.132,2.3,22.305,22.305,0,0,0-16.7,1.71" transform="translate(-549.83 -588.971)" fill="#856f79" fill-rule="evenodd"/>
      <path id="Trazado_99473" data-name="Trazado 99473" d="M560.992,782.26c-4.465,5.744-15.7,17.209-37.86,16.266s-33.575-9.115-37.878-13.148l10.35-8.829-5.744-7.087s41.29-9.386,71.133,12.8" transform="translate(-351.516 -564.616)" fill="#856f79" fill-rule="evenodd"/>
      <path id="Trazado_99474" data-name="Trazado 99474" d="M497.629,791.274l5.756-4.91-1.707-2.1s22.724-4.252,40.82,3.535c0,0-14.094-2.443-24.6-1.068,0,0,16.829,1.185,26.994,8.038,0,0-9.179,5.484-23.072,3.214,0,0,10.306,2.717,17.912,2.466,0,0-30.086,4.582-42.1-9.17" transform="translate(-359.297 -574.432)" fill="#af9498" fill-rule="evenodd"/>
      <path id="Trazado_99475" data-name="Trazado 99475" d="M366.593,790.454s2.338-13.589,14.751-8.721c4.795-3.052,11.675.852,12.936,6.164a8.5,8.5,0,0,0-1.891-5.7l6-4.55a18.348,18.348,0,0,1,7.306.5,11.571,11.571,0,0,0-8.54-1.541l-1.918-1.623a46.375,46.375,0,0,0,12.416-6.544l8.917,6.836-9.08,7.641-7.632,8s-4.276,5.8-9.121,5.6a17.759,17.759,0,0,1-7.749-2.536c-.093-5.455,5.727-8.64,5.727-8.64a8.75,8.75,0,0,0-7.361,7.589,10.687,10.687,0,0,1-6.03.557,13.5,13.5,0,0,1,1.8-8.624c-3.414,2.326-3.478,7.97-3.478,7.97-2.309.36-6.211.348-7.052-2.381" transform="translate(-276.906 -565.213)" fill="#af9498" fill-rule="evenodd"/>
      <path id="Trazado_99476" data-name="Trazado 99476" d="M398.389,777.65a18.348,18.348,0,0,1,7.306.5,11.571,11.571,0,0,0-8.54-1.541l-1.918-1.623a46.375,46.375,0,0,0,12.416-6.544l8.917,6.836-9.08,7.641-7.632,8c-1.529,1.818-5.087,6.5-10.96,5.381a19.49,19.49,0,0,1-5.91-2.317c-.093-5.455,5.727-8.64,5.727-8.64a8.75,8.75,0,0,0-7.361,7.589,10.687,10.687,0,0,1-6.03.557,13.5,13.5,0,0,1,1.8-8.624c-3.414,2.326-3.478,7.97-3.478,7.97-2.309.36-6.211.348-7.052-2.381,0,0,1.3-7.562,7.119-9.383a8.244,8.244,0,0,0-3.319,3.59c-.986,2.566.867,3.7,3.266,1.71,2.166-1.8,2.887-2.554,5.227-3.017,0,0-2.256,4.868-.423,5.735s6.867-6.362,11.26-4.807a7.49,7.49,0,0,0,.607,5.671c3.336.668,4.827-1,7.054-2.878l8.131-6.855a12.338,12.338,0,0,0-7.127-2.569" transform="translate(-276.906 -565.213)" fill="#856f79" fill-rule="evenodd"/>
      <path id="Trazado_99477" data-name="Trazado 99477" d="M397.888,705.672s-15.98,1.576-23.253-6.035c0,0,1.413-15.477,8.6-23.725,8.3-6.766,26.65-19.579,38.22-12.3.01-.006,1.314.937,1.425,1.03,3.015,2.1,10.285,6.739,16.575,7.34a34.791,34.791,0,0,1-8.852-.441c3.578,2.688,8.166,3.2,13.816,3.2,8.87-1.15,4.635,5.058,6.7,6.6a37.461,37.461,0,0,0,14.464,7.255l-1.7,1.43s6.888,1.31,11.955-.6l4.9-15.974s5.049,3.824,8.942,4.41l8.071-3.2,7.095,3.359-5.041,2.533,7.568-1.908s9.614.972,13.683,1.62,9.468,6.809,12.115,10.461a29.547,29.547,0,0,1,.695,4.363s4.1.981,4.165,3.012.044,6.366.044,6.366-5.338,11.627-7.859,13.636c0,0-7.551,4.558-18.939,1.7,0,0-9.407-1.716-12.2-3.149a5.176,5.176,0,0,1-2.928-4.025l-2.542-.224a67.1,67.1,0,0,1-10.343-8.137,27.549,27.549,0,0,1-9.867-2.953c-4.738-2.572-17.328-8.31-25.576-10.461a24.087,24.087,0,0,1,6.675,5.729s-22.634-1.8-32.225-.452-22.108,2.606-28.848,1.021c0,0,7.052,3.686,17.237,2.011,0,0-6.05,5.473-12.769,6.509" transform="translate(-281.963 -497.937)" fill="#c6664e" fill-rule="evenodd"/>
      <path id="Trazado_99478" data-name="Trazado 99478" d="M422.405,669.274c9.057-5.791,20.807-10.872,29.087-5.662.01-.006,1.314.937,1.425,1.03,3.015,2.1,10.285,6.739,16.575,7.34a34.8,34.8,0,0,1-8.852-.441c3.578,2.688,8.166,3.2,13.816,3.2,8.87-1.15,4.635,5.058,6.7,6.6a36.469,36.469,0,0,0,9.092,5.414,1.7,1.7,0,0,1-.7.327c-4.124.89-6.605-.942-10.9-4.08s-9.743-3.931-18.861-6.453-7.722-6.973-15.316-9.626-22.016,2.449-22.016,2.449c-.018-.032-.032-.064-.05-.1" transform="translate(-311.999 -497.936)" fill="#9d4b49" fill-rule="evenodd"/>
      <path id="Trazado_99479" data-name="Trazado 99479" d="M771.865,716.448a40.254,40.254,0,0,1,8.575,8.867,29.51,29.51,0,0,1,.695,4.363s4.1.981,4.165,3.012.044,6.366.044,6.366-.87-2.727-1.987-5.263a4,4,0,0,0-3.456-2.534c-5.275,3.076-12,2.338-12,2.338,8.5-.739,11.216-4.186,11.216-4.186l-.338-3.943c-1.313-2.306-6.914-9.021-6.914-9.021" transform="translate(-529.236 -532.523)" fill="#dfa772" fill-rule="evenodd"/>
      <path id="Trazado_99480" data-name="Trazado 99480" d="M374.635,712.6s1.413-15.477,8.6-23.725a99.839,99.839,0,0,1,9.416-6.818,39.924,39.924,0,0,0-5.326,8.262,15.96,15.96,0,0,1,5.624,6.143c-5.055-4.048-7.463-3.628-7.463-3.628-6.039,7.037-10.852,19.765-10.852,19.765" transform="translate(-281.963 -510.896)" fill="#dfa772" fill-rule="evenodd"/>
      <path id="Trazado_99481" data-name="Trazado 99481" d="M450.881,701.461l0,0Zm-52.993,24.56s-15.98,1.576-23.253-6.035a75.508,75.508,0,0,0,18.747.213s-6.815.391-11.068-6.713a62.057,62.057,0,0,0,22.234.093c11.651-2.219,21.2-3.278,29.487-1.673,0,0-5.33-3.091-14.809-3.972,0,0,23.18-4.891,39.655,3.454a27.173,27.173,0,0,0-7.308-9.358c3.021,2.262,6.167,4.653,14.006,6.914l-.691,1.065s5.881,1.675,10.948-.231l4.9-15.974s5.049,3.823,8.942,4.41l8.071-3.2,7.095,3.359-5.041,2.533L507.369,699s9.614.972,13.683,1.62a9.149,9.149,0,0,1,3.54,1.594c-.015.017-4.993,5.77-24.16,4.13,0,0,9.571,3.537,17.016,2.568,0,0-18.679,4.492-35.394.2,0,0,.473,6.462-1.848,8.73,0,0,11.453,4.889,18.163,12.279a11.163,11.163,0,0,0-.339-6.369,45.036,45.036,0,0,1,9.221,9.01c3.8,5.206,15.676,4.378,20.746,1.33s10.075-9.266,10.075-9.266-5.338,11.627-7.859,13.636c0,0-7.551,4.558-18.939,1.7,0,0-9.407-1.716-12.2-3.149a5.176,5.176,0,0,1-2.928-4.025l-2.542-.224a67.1,67.1,0,0,1-10.343-8.137,27.542,27.542,0,0,1-9.867-2.954c-4.738-2.572-17.328-8.309-25.576-10.46a24.084,24.084,0,0,1,6.675,5.729s-22.634-1.8-32.225-.452-22.108,2.606-28.848,1.021c0,0,7.052,3.686,17.237,2.011C410.657,719.512,404.606,724.985,397.888,726.021Z" transform="translate(-281.963 -518.285)" fill="#9d4b49" fill-rule="evenodd"/>
      <path id="Trazado_99482" data-name="Trazado 99482" d="M395.2,596.875c-1.027-6.613-2.221-23.457,8.391-39.016a59.065,59.065,0,0,0,1.521,13.583c5.268-9.168,5.463-23.382-2.451-31.1,11.379.838,18.051,11.47,10.4,21.23-4.436,5.66-3.543,13.8-3.543,13.8a6.594,6.594,0,0,0-2.965.455c5.428,1.909,11.992,7.773,11.992,7.773-12.328,2.314-23.349,13.271-23.349,13.271" transform="translate(-294.487 -421.796)" fill="#856f79" fill-rule="evenodd"/>
      <path id="Trazado_99483" data-name="Trazado 99483" d="M418.843,571.442c5.268-9.168,5.463-23.382-2.451-31.1.1.006.192.015.288.024,11.345,4.874,8.739,18.875,8.739,18.875a11.631,11.631,0,0,0-1.774-5.784,38.057,38.057,0,0,1-3.514,19.724Z" transform="translate(-308.218 -421.796)" fill="#af9498" fill-rule="evenodd"/>
      <path id="Trazado_99484" data-name="Trazado 99484" d="M395.2,626.536c-1.027-6.613-2.221-23.457,8.391-39.016-5.942,15.571-2.475,27.26-2.475,27.26a12.188,12.188,0,0,0-3.223,4.244c3.6-3.607,8.963-3.859,8.963-3.859A21.424,21.424,0,0,0,395.2,626.536" transform="translate(-294.487 -451.456)" fill="#af9498" fill-rule="evenodd"/>
      <path id="Trazado_99485" data-name="Trazado 99485" d="M467.291,529.255a20.571,20.571,0,0,1,3.386-1.138,25.454,25.454,0,0,0-3.409-.164c.1-3.68,1.576-13.965,15.06-14.753a21.041,21.041,0,0,0-5.064,6.076,14.159,14.159,0,0,1,2.4-1.357s-6.952,9.932-10.577,17.929l2.341-1.585a24.192,24.192,0,0,1,3.713,7.629,21.4,21.4,0,0,0-4.913-1.17,32.558,32.558,0,0,0-12.477.934,14.79,14.79,0,0,1,5.227-6.888s-3.359,1.214-4.582,3.26c1.188-4.7,3.517-7.775,8.893-8.773" transform="translate(-334.225 -404.727)" fill="#9d4b49" fill-rule="evenodd"/>
      <path id="Trazado_99486" data-name="Trazado 99486" d="M485.435,528c-.566-.035-1.276-.058-2.052-.044.1-3.68,1.576-13.965,15.06-14.753-13.286,2.367-13.008,14.8-13.008,14.8" transform="translate(-350.34 -404.727)" fill="#c6664e" fill-rule="evenodd"/>
      <path id="Trazado_99487" data-name="Trazado 99487" d="M460.817,562.445a6.992,6.992,0,0,0-2.42,2.2c1.188-4.7,3.517-7.775,8.893-8.773A10.188,10.188,0,0,0,460.817,562.445Zm-1.138,5.315c-.649.143-1.293.312-1.926.517a15.658,15.658,0,0,1,3.488-5.478l1.739-1.41A18.39,18.39,0,0,0,459.679,567.76Zm7.611-11.884s.345-.146.832-.339A5.737,5.737,0,0,1,467.291,555.876Z" transform="translate(-334.225 -431.347)" fill="#c6664e" fill-rule="evenodd"/>
      <path id="Trazado_99488" data-name="Trazado 99488" d="M537.261,360.789c7.288.4,16.715,7.259,22.394,6.909l0,0c3.989,1.836,5.136,5.5,5.393,8.277.354-3.257.59-7.285-1.345-10.107q6.269-4.036,12.536-8.075c9.059-5.838,19.036-3.762,28.159,1.333,0,0-.006.05-.015.152a27.3,27.3,0,0,1-12.275,15.212,23.852,23.852,0,0,0,9.027-4.638s-7.3,13.026-19.318,16.336c0,0,3.809.444,9.833-2.224-5.934,6.564-17.842,9.985-26.481,10.852l-1.311-1.792-15.95-1.731-12.495,6.666a84.962,84.962,0,0,1-7.732-6.079,47.919,47.919,0,0,0,5.849,2.627c-3.079-3.415-3.523-6.129-2.4-8.415,5.064-10.335,24.6-9.1,33.751-6.188-10.469-7.214-14.5-4.167-22.619-6.476-4.83-1.372-7.618-7.425-7.968-8.228a7.115,7.115,0,0,0,2.965-4.413" transform="translate(-378.196 -304.792)" fill="#e4cdbe" fill-rule="evenodd"/>
      <path id="Trazado_99489" data-name="Trazado 99489" d="M525.918,386.621a8.968,8.968,0,0,1,3.172,7.89c-.656,6.967-8.011,6.292-7.022,15.658-6.328-4.737-3.181-17.573-.011-23.381a11.636,11.636,0,0,0,3.861-.167" transform="translate(-372.363 -325.137)" fill="#e4cdbe" fill-rule="evenodd"/>
      <path id="Trazado_99490" data-name="Trazado 99490" d="M454.673,430.97a11.054,11.054,0,0,1,5.274-1.2c-6.506-2.121-9.427.917-9.427.917.088-5.838,4.774-9.78,7.031-17.813l14.73,4.048c-.178,6.007,3.111,11.765,3.111,11.765s-4.658-3.549-5.5-4.769l0,.006v0c.1.306,3.894,8.671,14.5,13.539a18.016,18.016,0,0,1-8.1,1.947,14.971,14.971,0,0,0,5.759.665c-11.8,4.352-18.951-7.41-27.377-9.106" transform="translate(-329.677 -341.643)" fill="#e4cdbe" fill-rule="evenodd"/>
      <path id="Trazado_99491" data-name="Trazado 99491" d="M549.5,339.3c3.993-.184,8.362,1.576,11.812,3.039,9.748,4.13,12.4,3.931,18.44.043l10.242-6.6c6.537-4.211,13.945-4.071,23.235-.554-2.271-1.947-7.962-6.217-10.478-7.918l2.413,3.219c-4.833-1.331-9.637-2.767-14.532-3.867a108.456,108.456,0,0,0-17.5-2.589c-1.179-.067-2.367-.108-3.552-.114,7.869.978,10.968,2.825,10.968,2.825l-2.378.9s-.71,5.09-7.145,7.2-11.677-2.049-11.677-2.049a47.735,47.735,0,0,1-4.772,3.66,32.923,32.923,0,0,1-5.073,2.8" transform="translate(-391.913 -285.739)" fill="#856f79" fill-rule="evenodd"/>
      <path id="Trazado_99492" data-name="Trazado 99492" d="M622.046,336.709c5.5-1.944,11.686-1.278,19.05,1.512-2.271-1.947-7.962-6.217-10.477-7.918l2.413,3.219c-4.833-1.331-9.637-2.767-14.532-3.867-1.5-.336-3.006-.651-4.526-.937,0,.006-2.9,12.311-20.153,13.061,0,0,6.833,2.309,14.52-2.578,0,0-3.639,4.527-8.458,4.953a12.817,12.817,0,0,0,10.031-1.981c4.629-3.4,9.978-5.577,12.13-5.463Z" transform="translate(-419.779 -288.73)" fill="#af9498" fill-rule="evenodd"/>
      <path id="Trazado_99493" data-name="Trazado 99493" d="M470.473,383.454l9.754,2.679c5.046,1.387,5.692.931,6.763-3.222.181-.7.376-1.41.592-2.11a6.436,6.436,0,0,1-3.164-.154c-3.654-1-2.472-3.71-2.472-3.71a13.311,13.311,0,0,0-3.827.032c5.716-4.8,10.706-3.254,12.235-2.589a13.79,13.79,0,0,1,4.325-4.544,67.017,67.017,0,0,1-13.408,1.69c-6.867-.038-7.037-.695-10.066,4.325a34.537,34.537,0,0,1-.733,7.6" transform="translate(-342.223 -314.584)" fill="#856f79" fill-rule="evenodd"/>
      <path id="Trazado_99494" data-name="Trazado 99494" d="M470.473,386.236l9.112,2.5c-.017-.009-3.505-1.591-4.477-4.743a5.433,5.433,0,0,0-.034,2.016c.055.178-4.9-9.38,5.5-11.712-6.184-.07-6.444-.514-9.369,4.331a34.536,34.536,0,0,1-.733,7.6" transform="translate(-342.223 -317.365)" fill="#af9498" fill-rule="evenodd"/>
      <path id="Trazado_99495" data-name="Trazado 99495" d="M558.316,298.23l0,0c-12.8-6.736-36.206-13.411-36.206-13.411-8.233.975-20.865-4.749-20.865-4.749.978,3.9,5.017,6.728,5.017,6.728-2.883.943-10.4.085-10.4.085,1.7,3.017,6.882,4.433,6.882,4.433-4.538,1.094-8.61,4.787-8.61,4.787-6.908,6.24-10.782,15.716-10.782,15.716a60.808,60.808,0,0,0,20.258-1.8c11.079-2.883,20.939-16.621,20.939-16.621,15.253-.9,33.73,4.819,33.768,4.833" transform="translate(-350.32 -258.139)" fill="#9d4b49" fill-rule="evenodd"/>
      <path id="Trazado_99496" data-name="Trazado 99496" d="M491.5,312.445a52.137,52.137,0,0,0-8.146,13.034,45.671,45.671,0,0,0,5.435.19c16.554-.905,25.422-10.816,25.422-10.816-4.822,2.125-10.309.665-10.309.665a25.835,25.835,0,0,0,18.615-10.84l7.869-.841-11.021-2.04a52.865,52.865,0,0,1-9.949,2,17.4,17.4,0,0,0,7.62.193c-3.24,2.989-17.1,3.672-25.535,8.453" transform="translate(-350.32 -271.803)" fill="#c6664e" fill-rule="evenodd"/>
      <path id="Trazado_99497" data-name="Trazado 99497" d="M442.964,601.351a13.141,13.141,0,0,0,5.391,4.571,8.241,8.241,0,0,1-2.49.076,19.914,19.914,0,0,0,9.4,3.234,23.17,23.17,0,0,1-8.561-6.477c-3.111-9.267,8.447-11.041,14.856-10.638a15.446,15.446,0,0,0,4.465,5.458,10.249,10.249,0,0,1-3.925-2.446,13.006,13.006,0,0,0,5.96,6.555,12.916,12.916,0,0,0-3.616,8.347,17.42,17.42,0,0,1,4.007-5.741c-1.748,3.459-1.263,10.434-1.818,10.819-4.344,3.027-26.539.33-23.671-13.759" transform="translate(-324.766 -454.314)" fill="#856f79" fill-rule="evenodd"/>
      <path id="Trazado_99498" data-name="Trazado 99498" d="M504.013,509.4l13.916-26.4,15.784-4.836-11.649,29.758-10.787,1.124,10.513.756.762,4.016-10.718.989,11.065.841L525.243,528l-16.227-.735Z" transform="translate(-363.311 -382.694)" fill="#785451" fill-rule="evenodd"/>
      <path id="Trazado_99499" data-name="Trazado 99499" d="M504.013,560.316l.622-1.179.852.931,2.706.347,1.509,9.468-1.7.631,1.876.263,1.071,6.456,14.29,1.687-16.227-.735Z" transform="translate(-363.311 -433.611)" fill="#a98167" fill-rule="evenodd"/>
      <path id="Trazado_99500" data-name="Trazado 99500" d="M517.929,482.995l15.784-4.836-14.634,6.135-4.15,8.516-1.048.126.715.49-6.348,15.256-4.235.718Z" transform="translate(-363.311 -382.694)" fill="#a98167" fill-rule="evenodd"/>
      <path id="Trazado_99501" data-name="Trazado 99501" d="M569.645,457.286l54.088-13.712-.741,2.358-20.363,4.64,19.729-2.633-.93,2.954-41.15,6.371,40.563-4.5-4.527,14.363-37.128,7.644,36.1-4.378-3.706,11.759-38.494,4.611,38.456-1.366.7,4.822-19.405,1.24,19.709.855,6.153,45.128-40.727-15.434-13.53-5.309-6.489-29.5Z" transform="translate(-397.227 -360.948)" fill="#a98167" fill-rule="evenodd"/>
      <path id="Trazado_99502" data-name="Trazado 99502" d="M583.394,486.635l34.907-1.241.7,4.822-19.405,1.24,19.709.855,6.153,45.128-40.727-15.434L571.2,516.7l-2.5-11.35,25.789,4.93-19.406.82,41,7.244-.958-23.646-21.458-2.936,15.65-2.461.067-1.915Zm2.615-11.873,36.036-4.372-3.707,11.759-36.959,4.428-5.27-.152,38.132-6.149,2.8-5.741Zm2.982-17.716,38.607-4.284-4.526,14.362-37.09,7.638-6.459.047,40.046-10.524,2.052-7.86Zm-12.588.24,54.088-13.712-.742,2.358-20.363,4.64,19.729-2.632-.931,2.954-39.825,6.164Z" transform="translate(-403.986 -360.948)" fill="#785451" fill-rule="evenodd"/>
      <path id="Trazado_99503" data-name="Trazado 99503" d="M726.178,412.889l8.581-2.5-1.13,6.78-9.716,3.135Z" transform="translate(-501.577 -340.081)" fill="#785451" fill-rule="evenodd"/>
      <path id="Trazado_99504" data-name="Trazado 99504" d="M758.852,410.475l-1.031,6.7,8.925,1.468-.309-6.879Z" transform="translate(-522.898 -340.136)" fill="#a98167" fill-rule="evenodd"/>
      <path id="Trazado_99505" data-name="Trazado 99505" d="M738.387,505.487l.458,4.191,18.052,1.634,4.874-12.474-3.751-37.816a46.215,46.215,0,0,0-5.831-.867l.3,37.588-3.68,8.695Z" transform="translate(-510.678 -371.374)" fill="#785451" fill-rule="evenodd"/>
      <path id="Trazado_99506" data-name="Trazado 99506" d="M473.95,321.731a42.56,42.56,0,0,1,4.505-5.513,44.088,44.088,0,0,1-15.433-4.112,27.3,27.3,0,0,0,3.164,13.729,25.077,25.077,0,0,1-.911-9.31s2.589,3.286,8.675,5.207" transform="translate(-337.527 -278.284)" fill="#856f79" fill-rule="evenodd"/>
      <path id="Trazado_99507" data-name="Trazado 99507" d="M598.622,263.452l1.188.376a67.318,67.318,0,0,0,7.424-11.286s4.477,1.932,6.791,11.777a49.2,49.2,0,0,0-6.665-18.749c-4.606,5.621-11.833,12.781-15.081,15.938,2.122.619,4.237,1.276,6.342,1.944" transform="translate(-418.811 -236.448)" fill="#856f79" fill-rule="evenodd"/>
      <path id="Trazado_99508" data-name="Trazado 99508" d="M582.042,461.436l-.455,4.719,12.684-3.35Z" transform="translate(-412.088 -372.179)" fill="#a98167" fill-rule="evenodd"/>
      <path id="Trazado_99509" data-name="Trazado 99509" d="M588.746,675.059,590.7,655.01l-.849,20.58,1.1.528.986-12.045-.21,12.422,2.084,1,1.337-16.864-.061,17.48,4.013,1.938,1.623-15.965.143,16.744,6.143.493,4.492-17.237L602.2,660.9l-1.221-.49-4.381-3.885-.8-.609-9.278-4.328-.978,21.927Z" transform="translate(-414.579 -491.74)" fill="#785451" fill-rule="evenodd"/>
      <path id="Trazado_99510" data-name="Trazado 99510" d="M550,471.053l9.433-3.064.554-4.909-8.516,4.229Z" transform="translate(-392.23 -373.212)" fill="#785451" fill-rule="evenodd"/>
      <path id="Trazado_99511" data-name="Trazado 99511" d="M524.97,632.037a5.757,5.757,0,0,0,5.361.307c-1.833-.021-3.564-.143-5.361-.307m-1.226-5.14a5.158,5.158,0,0,0,5.361.307C527.272,627.184,525.539,627.064,523.744,626.9Zm-.187-4.107a5.633,5.633,0,0,0,5.361.306C527.086,623.077,525.353,622.954,523.557,622.791Zm-1.874,9.465a4.95,4.95,0,0,0,2.186-.342c-2.6-.385-5.356-2.39-4.621-5.387a5.522,5.522,0,0,0,2.575.265c-2.787-.992-4.91-3.178-2.84-6.351a3.889,3.889,0,0,0,2.9.958c-3.944-2.56-4.329-7.373,1.973-8.73-3.152,3.987,3.914,7.606,7.381,3.538a5.224,5.224,0,0,0,2.513-.184c.668.49,1.868,1.74.443,3.7A6.37,6.37,0,0,1,530.757,622a4.094,4.094,0,0,1,.105,2.375,5.179,5.179,0,0,0,.724-1.751,6.836,6.836,0,0,0,3.534-2.679c1.29.4,3.263,1.48,1.343,4.092a9.408,9.408,0,0,1-4.7,2.749,6.55,6.55,0,0,1,.023,2.093,4.73,4.73,0,0,0,.791-1.535,8.088,8.088,0,0,0,4.567-2.931c.989.654,2.5,2.157.523,4.5a13.185,13.185,0,0,1-4.275,2.919,2.826,2.826,0,0,1-.126,1.19,3.253,3.253,0,0,0,.74-.925,10.773,10.773,0,0,0,3.97-2.531C540.713,636.926,522,639.141,521.683,632.256Z" transform="translate(-372.203 -467.269)" fill="#856f79" fill-rule="evenodd"/>
      <path id="Trazado_99512" data-name="Trazado 99512" d="M520.921,632.037a5.757,5.757,0,0,0,5.361.307c-1.833-.021-3.564-.143-5.361-.307M519.7,626.9a5.157,5.157,0,0,0,5.361.307C523.224,627.184,521.49,627.064,519.7,626.9Zm-.187-4.107a5.633,5.633,0,0,0,5.361.306C523.037,623.077,521.3,622.954,519.508,622.791Zm-1.964-1.375-.009-.222c.1.07.2.137.3.207A2.427,2.427,0,0,1,517.544,621.417Zm1.972,10.612-.058-.178c.12.026.242.047.363.064C519.821,631.915,519.709,631.964,519.517,632.028Zm-7.229-12.906s-1.78,7.381.935,11.266a15.144,15.144,0,0,0,7.92,5.58l-.027-.053a11.357,11.357,0,0,0,2.254.432,5.208,5.208,0,0,0,3.423-1.99c1.18-2.026-1.132-4.425-1.132-4.425a3.994,3.994,0,0,0-.752-4.559,4.277,4.277,0,0,0,.2-3.923,3.523,3.523,0,0,0,.117-3.82v0c-3.57,1.434-8.047-1.637-5.417-4.959-2.995.645-4.477,2.07-4.786,3.663-.4.315-.791.637-1.183.978a39.579,39.579,0,0,0,.187,10.7C512.338,625.144,512.288,619.122,512.288,619.122Z" transform="translate(-368.154 -467.269)" fill="#a28e81" fill-rule="evenodd"/>
      <path id="Trazado_99513" data-name="Trazado 99513" d="M621.319,636.986a4.786,4.786,0,0,1,6.246,1.681c2.379-.531,4.29.683,5.14,3.1a5.16,5.16,0,0,1,3.089.983A4.78,4.78,0,0,1,637.966,647c-.319,2.233-3.931,2.767-3.707,5.692a4,4,0,0,1-.893,3.087c-1.6,1.772-4.871,1.319-7.019,1.2-1.562-.087-4.084-.082-5.25-1.071a.357.357,0,0,1-.056-.047l-.348-.1c-.192-.059-.385-.114-.578-.17-.6-.169-1.217-.339-1.819-.551l-3.767-2.21c-1.459-1.109-3.068-2.227-3.841-3.955a5.759,5.759,0,0,1-.184-4.019c.949-3.362,3.12-7.471,6.824-8.324a6.144,6.144,0,0,1,3.99.458" transform="translate(-430.099 -482.177)" fill="#2e081f" fill-rule="evenodd"/>
      <path id="Trazado_99514" data-name="Trazado 99514" d="M635.689,656.333c-.295-3.835,3.622-5.426,3.724-6.141.187-1.307-2.125-3.96-4.822-2.408a7.142,7.142,0,0,0-2.931,3.564,4.569,4.569,0,0,0-2.63-.4,5.79,5.79,0,0,1,2.035-.6,7.656,7.656,0,0,1,3.4-3.619c-.295-1.48-1.261-3.8-4.4-1.976a10.544,10.544,0,0,0-3.61,4.9,7.343,7.343,0,0,0-2.326-.274,5.284,5.284,0,0,1,1.8-.7,9.014,9.014,0,0,1,3.794-4.734c-.611-1.182-2.1-3.044-4.942-1.115a14.794,14.794,0,0,0-3.754,4.413,3.16,3.16,0,0,0-1.34,0,3.583,3.583,0,0,1,1.118-.712,12.029,12.029,0,0,1,3.283-4.118c-3.791-1.883-6.838,1.912-8.128,6.48-.8,2.831.972,4.016,3.289,5.773a6.669,6.669,0,0,1,.847-4.071c-.1,1.012-.161,2-.208,2.989-.116,2.574,2.525,2.974,4.878,3.686a6.446,6.446,0,0,1,.9-4.705c-.114,1.206-.184,2.376-.228,3.55-.093,2.437,1.208,2,3.745,2.182a8.376,8.376,0,0,1,1.033-5.037c-.167,1.751-.243,3.43-.277,5.146,4.01.222,5.936.4,5.744-2.075" transform="translate(-433.583 -485.664)" fill="#af9498" fill-rule="evenodd"/>
      <path id="Trazado_99515" data-name="Trazado 99515" d="M635.689,667.454a5.03,5.03,0,0,1,.023-1.013c-1.728-4.016-7.7-1.976-7.7-1.976-1.025-2.837-5.245-1.211-5.245-1.211-.838-4.419-6.677-3.581-6.7-3.579-.035.114-.067.228-.1.342-.8,2.831.972,4.016,3.289,5.773a6.669,6.669,0,0,1,.847-4.071c-.1,1.013-.161,2-.208,2.989-.116,2.574,2.525,2.974,4.878,3.686a6.446,6.446,0,0,1,.9-4.705c-.114,1.206-.184,2.376-.228,3.549-.093,2.437,1.208,2,3.745,2.183a8.373,8.373,0,0,1,1.033-5.038c-.167,1.751-.243,3.43-.277,5.146,4.01.221,5.936.4,5.744-2.075" transform="translate(-433.583 -496.785)" fill="#856f79" fill-rule="evenodd"/>
      <path id="Trazado_99516" data-name="Trazado 99516" d="M585.486,338.469c6.7,1.471,13.373-5.107,5.359-4.836a18.008,18.008,0,0,1-1.456,1.687,1.808,1.808,0,0,1-2.723,2.376c-.373.268-.768.531-1.179.773" transform="translate(-414.539 -291.815)" fill="#fff" fill-rule="evenodd"/>
      <path id="Trazado_99517" data-name="Trazado 99517" d="M505.239,387.833s.444,3.108,4.279,2.682l.61-1.384a1.342,1.342,0,0,1-1.2-1.334c0-.023,0-.049,0-.076-1.229.05-2.46.091-3.692.111" transform="translate(-364.082 -325.83)" fill="#fff" fill-rule="evenodd"/>
      <path id="Trazado_99518" data-name="Trazado 99518" d="M537.261,362.3a16.909,16.909,0,0,1,3.017.476,8.678,8.678,0,0,1,3.888,6.809c.24,4.681,19.645,3.689,25.8,14.009a6.128,6.128,0,0,0-.906-4.051s14.427-1.844,22.15-10.968a38.484,38.484,0,0,1-9.4,3.9s4.8-1.147,12.991-15.807a40.838,40.838,0,0,1,9.6,3.975s-.006.05-.015.152A27.3,27.3,0,0,1,592.112,376a23.852,23.852,0,0,0,9.027-4.638s-7.3,13.026-19.318,16.336c0,0,3.809.444,9.833-2.224-5.934,6.564-17.842,9.985-26.481,10.852l-1.311-1.792-15.95-1.731-12.495,6.666a84.954,84.954,0,0,1-7.732-6.079,47.928,47.928,0,0,0,5.849,2.627c-3.079-3.415-3.523-6.13-2.4-8.415,5.064-10.335,24.6-9.1,33.751-6.188-10.469-7.215-14.5-4.167-22.619-6.476-4.83-1.372-7.618-7.425-7.968-8.227a7.115,7.115,0,0,0,2.965-4.413" transform="translate(-378.196 -306.298)" fill="#a28e81" fill-rule="evenodd"/>
      <path id="Trazado_99519" data-name="Trazado 99519" d="M475.047,420.468l4.471,1.228c-.178,6.007,3.111,11.765,3.111,11.765s-4.658-3.549-5.5-4.769l0,.006v0c.1.307,3.894,8.671,14.494,13.539a17.994,17.994,0,0,1-8.1,1.947,14.974,14.974,0,0,0,5.759.665c-11.745,4.331-18.884-7.3-27.258-9.08,6.826-1.266,8.981,2.032,14.187,2.648-5.67-4.749-5.294-10.458-5.294-10.458,2.253,4.375,7.072,7.451,7.072,7.451-5.671-6.255-2.948-14.946-2.948-14.946" transform="translate(-336.914 -346.419)" fill="#a28e81" fill-rule="evenodd"/>
    </g>
  </g>
</svg>
