<svg xmlns="http://www.w3.org/2000/svg" width="620" height="319" viewBox="0 0 620 319">
  <g id="_23" data-name="23" transform="translate(-180 -1671)">
    <g id="Rectángulo_5228" data-name="Rectángulo 5228" transform="translate(180 1671)" fill="#fdafd7" stroke="#eee" stroke-width="1">
      <rect width="620" height="319" stroke="none"/>
      <rect x="0.5" y="0.5" width="619" height="318" fill="none"/>
    </g>
    <g id="Grupo_120478" data-name="Grupo 120478" transform="translate(327.208 1664.178)">
      <g id="Grupo_120487" data-name="Grupo 120487" transform="translate(83.601 276.547)" opacity="0.3">
        <g id="Grupo_120486" data-name="Grupo 120486">
          <g id="Grupo_120485" data-name="Grupo 120485">
            <g id="Grupo_120484" data-name="Grupo 120484">
              <g id="Grupo_120483" data-name="Grupo 120483">
                <ellipse id="Elipse_4255" data-name="Elipse 4255" cx="75.822" cy="11.048" rx="75.822" ry="11.048" fill="#6b184e"/>
              </g>
            </g>
          </g>
        </g>
      </g>
      <g id="Grupo_120492" data-name="Grupo 120492" transform="translate(69.241 96.249)">
        <g id="Grupo_120491" data-name="Grupo 120491">
          <g id="Grupo_120490" data-name="Grupo 120490">
            <g id="Grupo_120489" data-name="Grupo 120489">
              <g id="Grupo_120488" data-name="Grupo 120488">
                <path id="Trazado_119439" data-name="Trazado 119439" d="M1094.416,1272.983a81.078,81.078,0,0,0-9.192-23.085.212.212,0,0,0-.037-.066c-11.363-19.381-30.822-35.354-55.326-43.4-.294-.1-.591-.194-.889-.289q-1.656-.527-3.341-1c-.579-.166-1.162-.327-1.745-.484-1.17-.314-2.336-.6-3.506-.877-.587-.137-1.17-.265-1.753-.393-22.064-4.747-43.843-2.324-62.078,5.681-21.791,9.572-38.513,27.117-44.608,49.93a71.173,71.173,0,0,0-2.3,22.411q.143,2.586.471,5.156c2.464,19.368,12.624,37.76,28.271,51.935,1.654.8,4.325,1.534,6.657-.289a19.742,19.742,0,0,1,9.634-7.2c11.4-4.023,26.6,1.29,34.394,10.982a21.763,21.763,0,0,1,5.086,12.885,19.894,19.894,0,0,1-.616,5.632,5.574,5.574,0,0,0,1.129,2.282,7.148,7.148,0,0,0,3.552,2.183c44.335,4.834,85.263-18.7,95.6-57.4.087-.323.17-.649.252-.976A71.959,71.959,0,0,0,1094.416,1272.983Zm-71.125,15.886c-.186.012-.372.021-.562.029-.07,0-.145,0-.223.008-.178.008-.36.012-.542.012q-1.613.031-3.353-.083c-.352-.025-.711-.054-1.075-.087l-.256-.025c-.352-.033-.707-.075-1.067-.116q-1.173-.143-2.4-.351c-.393-.066-.79-.141-1.191-.219l-.265-.05c-.451-.091-.906-.186-1.369-.289-.252-.054-.5-.112-.761-.174-.86-.227-1.7-.467-2.522-.711l-.852-.261c-.583-.178-1.158-.364-1.724-.554-.281-.091-.558-.186-.831-.281-.087-.033-.178-.062-.265-.091-.248-.091-.5-.178-.74-.265a65.983,65.983,0,0,1-6.93-2.956c-.215-.108-.426-.215-.637-.323q-.453-.236-.893-.471c-.2-.1-.393-.211-.587-.318-.347-.194-.686-.389-1.021-.583-.174-.1-.347-.2-.517-.306l-.1-.062c-.194-.116-.385-.232-.575-.351-.426-.265-.839-.534-1.245-.8-.236-.157-.463-.314-.691-.471q-1.613-1.123-3.006-2.3c-.141-.12-.281-.236-.418-.36-.4-.339-.777-.686-1.145-1.034,14.108-12.913,36.64-5.818,38.414,13.8C1023.724,1288.844,1023.509,1288.861,1023.29,1288.869Z" transform="translate(-909.527 -1200.961)" fill="#f8bf71"/>
              </g>
            </g>
          </g>
        </g>
      </g>
      <g id="Grupo_120497" data-name="Grupo 120497" transform="translate(208.466 219.242)">
        <g id="Grupo_120496" data-name="Grupo 120496">
          <g id="Grupo_120495" data-name="Grupo 120495">
            <g id="Grupo_120494" data-name="Grupo 120494">
              <g id="Grupo_120493" data-name="Grupo 120493">
                <path id="Trazado_119440" data-name="Trazado 119440" d="M2594.484,2691.089h0a1.447,1.447,0,1,1,1.449-1.447A1.447,1.447,0,0,1,2594.479,2691.089Z" transform="translate(-2593.032 -2688.195)" fill="#6b184e"/>
              </g>
            </g>
          </g>
        </g>
      </g>
      <g id="Grupo_120502" data-name="Grupo 120502" transform="translate(83.168 96.159)">
        <g id="Grupo_120501" data-name="Grupo 120501">
          <g id="Grupo_120500" data-name="Grupo 120500">
            <g id="Grupo_120499" data-name="Grupo 120499">
              <g id="Grupo_120498" data-name="Grupo 120498">
                <path id="Trazado_119441" data-name="Trazado 119441" d="M1239.7,1248.9a.213.213,0,0,0-.037-.066c-9.887-18.595-29.912-35.106-55.326-43.4-.294-.1-.591-.194-.889-.289q-1.656-.527-3.341-1c-.579-.165-1.162-.327-1.745-.484-1.17-.314-2.336-.6-3.506-.877-.587-.136-1.17-.265-1.753-.393-22.746-4.929-44.889-2.361-62.078,5.681-15.837,7.406-27.468,19.455-31.5,34.564-1.856,6.947-1.377,18.268.021,25.277-3.854,22.341-.434,30.421,6.537,24.781a6.034,6.034,0,0,1,8.348.633c.017.021.037.041.054.062a12.523,12.523,0,0,0,6.455,3.866,12.788,12.788,0,0,0,5.946,0c21.159-5.057,37.285,1.708,47.655,22.023.058.124.12.244.182.36a10.469,10.469,0,0,0,.6,1.009c2.6,3.8,6.521,3.461,10.846,3.159a16.407,16.407,0,0,1,13.476,5.454c8.683,9.862,17.8,6.69,24.512-3.99,1.526,17.619,14.216,13.232,14.745-3.66a16.564,16.564,0,0,1,.537-3.213c2.63-9.725,13.381-10.048,19.406-18.533,0,0,0-.008.008-.012q1.129-1.867,2.138-3.9c0-.008.008-.021.012-.029a58.651,58.651,0,0,0,3.6-9.192C1248.305,1274.378,1246.217,1261.183,1239.7,1248.9Zm-61.284,38.931c-.215.017-.43.033-.649.041-.186.012-.372.021-.562.029-.07,0-.145,0-.223.008-.178.008-.36.012-.542.012q-1.613.031-3.353-.083c-.351-.025-.711-.054-1.075-.087l-.256-.025c-.351-.033-.707-.075-1.067-.116-.781-.1-1.584-.211-2.4-.352-.393-.066-.79-.141-1.191-.219l-.265-.05c-.451-.091-.906-.186-1.369-.289-.252-.054-.5-.112-.761-.174-.86-.227-1.7-.467-2.522-.711l-.852-.26c-.583-.178-1.158-.364-1.724-.554-.281-.091-.558-.186-.831-.281-.087-.033-.178-.062-.265-.091-.248-.091-.5-.178-.74-.265a65.953,65.953,0,0,1-6.93-2.956c-.215-.108-.426-.215-.637-.323q-.452-.236-.893-.471c-.2-.1-.393-.211-.587-.318-.347-.194-.687-.389-1.021-.583-.174-.1-.347-.2-.517-.306l-.1-.062c-.194-.116-.385-.232-.575-.351-.426-.265-.839-.534-1.245-.8-.236-.157-.463-.314-.691-.471q-1.613-1.123-3.006-2.3c-.141-.12-.281-.236-.418-.36-.4-.339-.777-.686-1.145-1.034-10.561-9.965-10.47-22.122-5.421-29.656a13.642,13.642,0,0,1,22.482-.066c4.172,6.05,8.969,8.758,15.155,4.052a8.567,8.567,0,0,1,4.027-1.728,6.242,6.242,0,0,1,6.409,2.981,10.59,10.59,0,0,0,9.5,4.8c.86-.066,1.741-.169,2.63-.293a3.277,3.277,0,0,1,3.122,1.344C1203.809,1263.822,1200.476,1286.183,1178.412,1287.829Z" transform="translate(-1077.928 -1199.873)" fill="#ff6ca8"/>
              </g>
            </g>
          </g>
        </g>
      </g>
      <g id="Grupo_120507" data-name="Grupo 120507" transform="translate(136.687 155.075)" opacity="0.65">
        <g id="Grupo_120506" data-name="Grupo 120506">
          <g id="Grupo_120505" data-name="Grupo 120505">
            <g id="Grupo_120504" data-name="Grupo 120504">
              <g id="Grupo_120503" data-name="Grupo 120503">
                <path id="Trazado_119442" data-name="Trazado 119442" d="M1794.057,1920.064c-.628,9.382-6.963,20.146-22.015,21.27-.215.017-.43.033-.649.041-.186.012-.372.021-.562.029-.07,0-.145,0-.223.008-.178.008-.36.012-.542.012q-1.612.031-3.353-.083c-.352-.025-.711-.054-1.075-.087l-.256-.025c-.352-.033-.707-.074-1.067-.116-.782-.1-1.584-.211-2.4-.352-.393-.066-.79-.141-1.191-.219l-.265-.049c-.451-.091-.906-.186-1.369-.29-.252-.054-.5-.112-.761-.174-.86-.227-1.7-.467-2.522-.711l-.852-.26c-.583-.178-1.158-.364-1.724-.554-.281-.091-.558-.186-.831-.281-.087-.033-.178-.062-.265-.091-.248-.091-.5-.178-.74-.265a65.992,65.992,0,0,1-6.93-2.956c-.215-.108-.426-.215-.637-.323q-.453-.236-.893-.471c-.2-.1-.393-.211-.587-.318-.347-.194-.686-.389-1.021-.583-.174-.1-.347-.2-.517-.306l-.1-.062c-.194-.116-.385-.232-.575-.352-.426-.265-.839-.533-1.245-.8-.236-.157-.463-.314-.691-.471q-1.613-1.123-3.006-2.3c-.141-.12-.281-.236-.418-.36-.4-.339-.777-.687-1.146-1.034-5.111-4.825-7.728-10.16-8.493-15.237-.475,6.388,1.919,13.666,8.679,20.046.368.347.748.695,1.145,1.034.136.124.277.24.418.36q1.4,1.172,3.006,2.3c.227.157.455.314.691.471.405.269.819.537,1.245.8.19.12.38.236.575.352l.1.062c.169.1.343.207.517.306.335.194.674.389,1.021.583.194.108.389.215.587.318q.44.235.893.471c.211.108.422.215.637.323a65.958,65.958,0,0,0,6.93,2.956c.244.087.492.174.74.265.087.029.178.058.265.091.273.1.55.19.831.281.567.19,1.141.376,1.724.554l.852.26c.819.244,1.662.484,2.522.711.256.062.509.12.761.174.463.1.918.2,1.369.29l.265.05c.4.079.8.153,1.191.219q1.228.211,2.4.352c.36.041.715.083,1.067.115l.256.025c.364.033.724.062,1.075.087q1.743.111,3.353.083c.182,0,.364,0,.542-.012.079,0,.153-.008.223-.008.19-.008.376-.017.562-.029.219-.008.434-.025.649-.042C1789.955,1944.82,1795.591,1930.124,1794.057,1920.064Z" transform="translate(-1725.078 -1912.294)" fill="#fce5e5"/>
              </g>
            </g>
          </g>
        </g>
      </g>
      <g id="Grupo_120512" data-name="Grupo 120512" transform="translate(135.847 134.366)" opacity="0.3">
        <g id="Grupo_120511" data-name="Grupo 120511">
          <g id="Grupo_120510" data-name="Grupo 120510">
            <g id="Grupo_120509" data-name="Grupo 120509">
              <g id="Grupo_120508" data-name="Grupo 120508">
                <path id="Trazado_119443" data-name="Trazado 119443" d="M1781.556,1678.914a3.277,3.277,0,0,0-3.122-1.344c-.889.124-1.77.227-2.63.294a10.59,10.59,0,0,1-9.5-4.8,6.242,6.242,0,0,0-6.409-2.981,8.567,8.567,0,0,0-4.028,1.729c-6.186,4.706-10.982,2-15.154-4.052a13.642,13.642,0,0,0-22.482.066,20.415,20.415,0,0,0-3.072,14.418,19.943,19.943,0,0,1,3.258-9.609,13.642,13.642,0,0,1,22.482-.066c4.172,6.049,8.969,8.758,15.155,4.052a8.564,8.564,0,0,1,4.027-1.728,6.242,6.242,0,0,1,6.409,2.981,10.591,10.591,0,0,0,9.5,4.8c.86-.066,1.741-.17,2.63-.294a3.278,3.278,0,0,1,3.122,1.344,14.856,14.856,0,0,1,2.341,6.293C1784.38,1685.646,1783.433,1681.573,1781.556,1678.914Z" transform="translate(-1714.916 -1661.883)" fill="#6b184e"/>
              </g>
            </g>
          </g>
        </g>
      </g>
      <g id="Grupo_120517" data-name="Grupo 120517" transform="translate(83.169 167.294)" opacity="0.3">
        <g id="Grupo_120516" data-name="Grupo 120516">
          <g id="Grupo_120515" data-name="Grupo 120515">
            <g id="Grupo_120514" data-name="Grupo 120514">
              <g id="Grupo_120513" data-name="Grupo 120513">
                <path id="Trazado_119444" data-name="Trazado 119444" d="M1079.053,2060.044c-1.141,7.534-1.36,13.228-.839,17.115a109.16,109.16,0,0,1,1.526-12.707C1079.475,2063.12,1079.239,2061.628,1079.053,2060.044Z" transform="translate(-1077.946 -2060.044)" fill="#6b184e"/>
              </g>
            </g>
          </g>
        </g>
      </g>
      <g id="Grupo_120522" data-name="Grupo 120522" transform="translate(83.539 96.159)" opacity="0.65">
        <g id="Grupo_120521" data-name="Grupo 120521">
          <g id="Grupo_120520" data-name="Grupo 120520">
            <g id="Grupo_120519" data-name="Grupo 120519">
              <g id="Grupo_120518" data-name="Grupo 120518">
                <path id="Trazado_119445" data-name="Trazado 119445" d="M1250.384,1277.926a55.685,55.685,0,0,0-6.57-21.514.212.212,0,0,0-.037-.066c-9.887-18.595-29.912-35.106-55.326-43.4-.294-.1-.591-.194-.889-.289q-1.656-.527-3.341-1c-.579-.166-1.162-.327-1.745-.484-1.17-.314-2.336-.6-3.506-.876-.323-.075-.645-.149-.968-.219-5.83,8.328-31.471,6.984-36.35-1.923a87.943,87.943,0,0,0-26.513,7.43c-15.837,7.406-27.469,19.455-31.5,34.564a39.759,39.759,0,0,0-1.121,7.91c-.269-5.462,0-11.239,1.121-15.423,4.036-15.109,15.667-27.158,31.5-34.564,17.189-8.042,39.332-10.61,62.078-5.681.583.128,1.166.256,1.753.393,1.17.273,2.336.563,3.506.877.583.157,1.166.318,1.745.484q1.687.478,3.341,1c.3.1.6.19.889.289,25.413,8.3,45.439,24.81,55.326,43.4a.212.212,0,0,1,.037.066C1248.8,1258.306,1251.2,1268.246,1250.384,1277.926Z" transform="translate(-1082.417 -1199.873)" fill="#fce5e5"/>
              </g>
            </g>
          </g>
        </g>
      </g>
      <g id="Grupo_120527" data-name="Grupo 120527" transform="translate(136.5 128.29)" opacity="0.3">
        <g id="Grupo_120526" data-name="Grupo 120526">
          <g id="Grupo_120525" data-name="Grupo 120525">
            <g id="Grupo_120524" data-name="Grupo 120524">
              <g id="Grupo_120523" data-name="Grupo 120523">
                <path id="Trazado_119446" data-name="Trazado 119446" d="M1789.46,1605.432a3.277,3.277,0,0,0-3.122-1.344c-.889.124-1.77.227-2.63.293a10.59,10.59,0,0,1-9.5-4.8,6.241,6.241,0,0,0-6.409-2.981,8.565,8.565,0,0,0-4.027,1.728c-6.186,4.705-10.982,2-15.155-4.052a13.642,13.642,0,0,0-22.482.066,20.417,20.417,0,0,0-3.072,14.418,19.716,19.716,0,0,1,3.072-8,13.642,13.642,0,0,1,22.482-.066c4.172,6.05,8.969,8.758,15.155,4.052a8.563,8.563,0,0,1,4.027-1.728,6.241,6.241,0,0,1,6.409,2.981,10.591,10.591,0,0,0,9.5,4.8c.86-.066,1.741-.17,2.63-.294a3.278,3.278,0,0,1,3.122,1.344,14.93,14.93,0,0,1,2.353,6.376C1792.507,1613.23,1791.577,1608.429,1789.46,1605.432Z" transform="translate(-1722.82 -1588.4)" fill="#6b184e"/>
              </g>
            </g>
          </g>
        </g>
      </g>
      <g id="Grupo_120532" data-name="Grupo 120532" transform="translate(83.171 164.627)" opacity="0.3">
        <g id="Grupo_120531" data-name="Grupo 120531">
          <g id="Grupo_120530" data-name="Grupo 120530">
            <g id="Grupo_120529" data-name="Grupo 120529">
              <g id="Grupo_120528" data-name="Grupo 120528">
                <path id="Trazado_119447" data-name="Trazado 119447" d="M1246.08,2027.794a43.1,43.1,0,0,1-1.687,9.068,58.651,58.651,0,0,1-3.6,9.192c0,.008-.008.021-.012.029q-1.005,2.035-2.138,3.9s-.008.009-.008.013c-6.025,8.485-19.637,10.771-22.267,20.5a16.583,16.583,0,0,0-.537,3.213c-.529,16.891-7.344,20.057-8.87,2.438-6.711,10.681-18.843,13.109-27.526,3.247a16.406,16.406,0,0,0-13.476-5.454c-4.325.3-8.249.645-10.846-3.159a10.536,10.536,0,0,1-.6-1.009c-.062-.116-.124-.236-.182-.36-10.37-20.315-26.5-27.08-47.655-22.023a12.788,12.788,0,0,1-5.946,0,12.521,12.521,0,0,1-6.455-3.866c-.017-.021-.037-.041-.054-.062a6.034,6.034,0,0,0-8.349-.633c-3.969,3.213-6.789,1.972-7.766-3.817-.885,13.36,2.419,17.64,8,13.124a6.034,6.034,0,0,1,8.348.633c.017.021.037.041.054.062a12.526,12.526,0,0,0,6.455,3.866,12.792,12.792,0,0,0,5.946,0c21.159-5.057,37.285,1.708,47.655,22.022.058.124.12.244.182.36a10.547,10.547,0,0,0,.6,1.009c2.6,3.8,6.521,3.461,10.846,3.159a16.407,16.407,0,0,1,13.476,5.454c8.683,9.862,17.8,6.69,24.512-3.99,1.526,17.619,14.216,13.232,14.745-3.659a16.581,16.581,0,0,1,.537-3.213c2.63-9.726,13.381-10.048,19.406-18.533,0,0,0-.009.008-.012q1.129-1.867,2.138-3.9c0-.009.008-.021.012-.029a58.676,58.676,0,0,0,3.6-9.192A44.246,44.246,0,0,0,1246.08,2027.794Z" transform="translate(-1077.958 -2027.794)" fill="#6b184e"/>
              </g>
            </g>
          </g>
        </g>
      </g>
      <g id="Grupo_120537" data-name="Grupo 120537" transform="translate(83.168 96.159)">
        <g id="Grupo_120536" data-name="Grupo 120536">
          <g id="Grupo_120535" data-name="Grupo 120535">
            <g id="Grupo_120534" data-name="Grupo 120534">
              <g id="Grupo_120533" data-name="Grupo 120533">
                <path id="Trazado_119448" data-name="Trazado 119448" d="M1239.7,1248.9a.213.213,0,0,0-.037-.066c-9.887-18.595-29.912-35.106-55.326-43.4-.294-.1-.591-.194-.889-.289q-1.656-.527-3.341-1c-.579-.165-1.162-.327-1.745-.484-1.17-.314-2.336-.6-3.506-.877-.587-.136-1.17-.265-1.753-.393-22.746-4.929-44.889-2.361-62.078,5.681-15.837,7.406-27.468,19.455-31.5,34.564-1.856,6.947-1.377,18.268.021,25.277-3.854,22.341-.434,30.421,6.537,24.781a6.034,6.034,0,0,1,8.348.633c.017.021.037.041.054.062a12.636,12.636,0,0,0,12.4,3.866c21.159-5.057,37.285,1.708,47.655,22.023.058.124.12.244.182.36,2.564,4.867,6.773,4.495,11.45,4.168a16.407,16.407,0,0,1,13.476,5.454c8.683,9.862,17.8,6.69,24.512-3.99,1.526,17.619,14.216,13.232,14.745-3.66a16.564,16.564,0,0,1,.537-3.213c2.63-9.725,13.381-10.048,19.406-18.533,0,0,0-.008.008-.012q1.129-1.867,2.138-3.9c0-.008.008-.021.012-.029a58.651,58.651,0,0,0,3.6-9.192C1248.305,1274.378,1246.217,1261.183,1239.7,1248.9Zm-63.937,40.475c-.885,0-1.814-.031-2.77-.092h-.009c-.366-.026-.737-.056-1.1-.089h-.013l-.227-.022-.022,0c-.344-.032-.694-.073-1.032-.112l-.062-.007h-.01c-.833-.1-1.665-.223-2.473-.362-.359-.061-.75-.132-1.224-.225l-.257-.048-.015,0c-.512-.1-.967-.2-1.391-.294-.254-.054-.514-.113-.793-.181l-.03-.008c-.825-.218-1.664-.455-2.565-.723l-.008,0-.009,0-.848-.259c-.549-.168-1.123-.352-1.75-.562-.31-.1-.606-.2-.854-.289l-.039-.014c-.05-.019-.1-.036-.152-.052l-.055-.018-.041-.014c-.178-.065-.356-.128-.532-.191l-.195-.069-.009,0a67.738,67.738,0,0,1-7.082-3.022c-.219-.109-.434-.219-.648-.328l-.011-.006c-.3-.158-.606-.318-.9-.475-.211-.11-.413-.222-.609-.33l-.009-.005c-.318-.178-.657-.371-1.036-.591-.172-.1-.352-.2-.549-.325l-.014-.008-.086-.054c-.215-.128-.408-.246-.589-.36-.391-.243-.8-.5-1.276-.823-.25-.167-.486-.33-.713-.487-1.083-.754-2.129-1.554-3.114-2.381l-.008-.007-.1-.089c-.106-.09-.216-.182-.33-.286-.369-.315-.756-.665-1.182-1.068-5.123-4.834-8.237-10.577-9.006-16.609a21.779,21.779,0,0,1,3.377-14.9,14.629,14.629,0,0,1,5.5-4.921,15.277,15.277,0,0,1,13.752-.062,15.015,15.015,0,0,1,5.621,4.9c2.41,3.495,4.716,5.375,7.05,5.748,1.876.3,3.851-.363,6.037-2.026a10.017,10.017,0,0,1,4.71-2.011,7.72,7.72,0,0,1,7.8,3.605,9.187,9.187,0,0,0,8.191,4.164c.756-.058,1.587-.151,2.538-.284a4.7,4.7,0,0,1,4.5,1.943c3.615,5.118,3.8,14,.446,21.119-3.771,8-11.232,12.8-21.009,13.531h0c-.218.017-.443.034-.681.043-.188.012-.373.021-.576.03h-.063c-.028,0-.082,0-.135.005h-.021c-.194.009-.394.014-.595.014Q1176.11,1289.374,1175.76,1289.374Zm-2.581-2.98c1.131.072,2.218.1,3.229.08.169,0,.337,0,.5-.011h.007c.076,0,.16-.008.251-.009.187-.008.345-.016.5-.026l.042,0c.19-.007.384-.022.59-.038h.006c8.691-.648,15.3-4.867,18.606-11.88a22.642,22.642,0,0,0,2.114-10.18,14.942,14.942,0,0,0-2.306-8.035,1.842,1.842,0,0,0-1.744-.745c-1.007.141-1.9.24-2.715.3a11.543,11.543,0,0,1-6.147-1.264,12.648,12.648,0,0,1-4.661-4.164,4.813,4.813,0,0,0-5.018-2.358,7.123,7.123,0,0,0-3.34,1.443,11.525,11.525,0,0,1-6.926,2.688,8.375,8.375,0,0,1-1.323-.1c-3.157-.5-6.093-2.782-8.977-6.963a12.2,12.2,0,0,0-10.141-5.253,11.881,11.881,0,0,0-9.947,5.3c-4.675,6.976-4.877,18.277,5.212,27.8.4.376.755.7,1.092.986l.034.03c.082.074.172.151.269.232l.108.091c.918.771,1.894,1.517,2.9,2.218.214.148.439.3.667.455.454.3.838.549,1.206.777l.008,0c.166.1.343.213.544.333l.027.016.092.057c.172.105.328.2.475.281l.008,0c.368.213.7.4,1,.572.187.1.367.2.549.3l.015.008c.285.152.579.307.873.461.206.1.411.21.621.315a64.9,64.9,0,0,0,6.772,2.889l.187.066c.179.063.36.128.54.194l.029.01c.076.025.161.053.253.088.232.081.5.175.783.265l.015.005c.6.2,1.156.38,1.686.542l.842.257.006,0c.865.258,1.67.485,2.459.694.25.06.481.113.707.161l.014,0c.4.09.839.182,1.33.281l.259.049c.456.089.822.157,1.16.214.764.131,1.547.246,2.332.341l.058.007c.339.039.658.076.975.105l.024,0,.235.023C1172.489,1286.341,1172.837,1286.369,1173.179,1286.393Z" transform="translate(-1077.928 -1199.873)" fill="none"/>
              </g>
            </g>
          </g>
        </g>
      </g>
      <g id="Grupo_120542" data-name="Grupo 120542" transform="translate(91.685 180.623)">
        <g id="Grupo_120541" data-name="Grupo 120541">
          <g id="Grupo_120540" data-name="Grupo 120540">
            <g id="Grupo_120539" data-name="Grupo 120539">
              <g id="Grupo_120538" data-name="Grupo 120538">
                <path id="Trazado_119449" data-name="Trazado 119449" d="M1188.155,2231.531l-.577-.5-.574-.51c-.19-.174-.381-.344-.574-.516l-.292-.254c-.1-.083-.2-.168-.294-.254a8.793,8.793,0,0,1-1.1-1.1c-.083-.1-.164-.2-.244-.307l-.234-.316-.233-.316-.225-.323a25.089,25.089,0,0,1-1.623-2.675c-.121-.229-.239-.46-.35-.7s-.225-.466-.325-.706c-.212-.471-.4-.953-.576-1.44a.3.3,0,0,1,.484-.315l.005.005q.278.266.543.536l.537.532c.177.178.359.35.537.525.09.086.176.176.267.261l.27.257q1.074,1.029,2.175,1.981c.366.319.741.627,1.111.938.181.159.359.322.53.491s.337.345.5.521.338.349.509.521.357.332.536.5l.549.488.557.484.01.009a1.447,1.447,0,0,1-1.9,2.184Z" transform="translate(-1180.914 -2221.219)" fill="#6b184e"/>
              </g>
            </g>
          </g>
        </g>
      </g>
      <g id="Grupo_120547" data-name="Grupo 120547" transform="translate(143.791 162.336)">
        <g id="Grupo_120546" data-name="Grupo 120546">
          <g id="Grupo_120545" data-name="Grupo 120545">
            <g id="Grupo_120544" data-name="Grupo 120544">
              <g id="Grupo_120543" data-name="Grupo 120543">
                <path id="Trazado_119450" data-name="Trazado 119450" d="M1848.191,2023.414c-.885,0-1.814-.031-2.77-.092-.365-.025-.727-.055-1.114-.09h-.013l-.227-.022-.022,0c-.344-.032-.694-.073-1.032-.112l-.062-.007h-.01c-.833-.1-1.665-.223-2.473-.362-.359-.061-.75-.132-1.224-.225l-.258-.048-.015,0c-.513-.1-.968-.2-1.391-.294-.254-.054-.513-.114-.792-.181l-.03-.008c-.825-.218-1.664-.455-2.566-.723l-.008,0-.009,0-.848-.26c-.549-.167-1.124-.352-1.75-.562-.31-.1-.605-.2-.854-.289l-.039-.014c-.05-.019-.1-.036-.152-.052l-.055-.018-.041-.014c-.178-.065-.356-.128-.532-.191l-.195-.069-.009,0a67.783,67.783,0,0,1-7.082-3.022c-.219-.11-.434-.219-.648-.328l-.011-.006c-.3-.158-.606-.317-.9-.475-.211-.11-.413-.222-.609-.33l-.009-.005c-.318-.178-.657-.372-1.036-.592-.172-.1-.351-.2-.548-.325l-.013-.008-.086-.054c-.214-.128-.407-.246-.588-.36-.391-.243-.8-.5-1.277-.823-.251-.167-.486-.33-.713-.487-1.083-.754-2.129-1.554-3.114-2.382l-.008-.007-.1-.089c-.106-.09-.216-.182-.33-.285-.369-.315-.756-.665-1.182-1.068a1.448,1.448,0,0,1,.016-2.12,26.117,26.117,0,0,1,12.87-6.494,24.458,24.458,0,0,1,13.288,1.214,22.837,22.837,0,0,1,9.894,7.374,23.959,23.959,0,0,1,4.781,12.645,1.447,1.447,0,0,1-1.331,1.573l-.111-1.443.108,1.443c-.218.017-.443.034-.681.043-.188.012-.372.021-.575.03h-.063c-.028,0-.082,0-.135.005h-.021c-.194.009-.394.014-.594.014Q1848.541,2023.414,1848.191,2023.414Zm-3.615-3.064c.364.033.7.06,1.038.084,1.125.072,2.213.1,3.225.079.128,0,.256,0,.381-.006a20.121,20.121,0,0,0-12.655-16.088,22.157,22.157,0,0,0-21.944,3.675l.2.168.107.091c.918.771,1.894,1.518,2.9,2.219.214.148.439.3.667.455.454.3.838.549,1.205.777l.008,0c.165.1.343.213.544.333l.027.016.091.057c.172.105.328.2.475.281l.008,0c.368.214.7.4,1,.572.187.1.367.2.549.3l.014.007c.285.153.579.308.873.461.206.1.411.209.621.314a64.923,64.923,0,0,0,6.773,2.889l.187.066c.179.063.36.127.54.194l.029.009c.076.025.161.053.253.088.232.081.5.175.783.265l.015,0c.6.2,1.156.38,1.686.542.281.087.562.172.842.258l.005,0c.866.258,1.671.485,2.46.694.25.06.482.113.708.161l.014,0c.4.09.839.182,1.331.281l.258.049c.456.089.822.156,1.16.214.764.131,1.548.246,2.333.341l.057.007c.339.039.658.076.975.105l.024,0Z" transform="translate(-1810.983 -2000.091)" fill="#6b184e"/>
              </g>
            </g>
          </g>
        </g>
      </g>
      <g id="Grupo_120552" data-name="Grupo 120552" transform="translate(182.205 182.668)">
        <g id="Grupo_120551" data-name="Grupo 120551">
          <g id="Grupo_120550" data-name="Grupo 120550">
            <g id="Grupo_120549" data-name="Grupo 120549">
              <g id="Grupo_120548" data-name="Grupo 120548">
                <path id="Trazado_119451" data-name="Trazado 119451" d="M2276.929,2248.841a1.446,1.446,0,0,1-1.447-1.445v0a1.447,1.447,0,1,1,1.447,1.449Z" transform="translate(-2275.482 -2245.944)" fill="#6b184e"/>
              </g>
            </g>
          </g>
        </g>
      </g>
      <g id="Grupo_120557" data-name="Grupo 120557" transform="translate(95.528 192.084)">
        <g id="Grupo_120556" data-name="Grupo 120556">
          <g id="Grupo_120555" data-name="Grupo 120555">
            <g id="Grupo_120554" data-name="Grupo 120554">
              <g id="Grupo_120553" data-name="Grupo 120553">
                <path id="Trazado_119452" data-name="Trazado 119452" d="M1233.333,2403.675a1.445,1.445,0,0,1-1.15-.567,23.4,23.4,0,0,1-4.309-10.377,37.466,37.466,0,0,1-.023-11.875c1.2-8.1,4.614-15.8,9.129-20.6a1.447,1.447,0,1,1,2.108,1.983c-4.064,4.32-7.273,11.616-8.374,19.042-1.2,8.065.177,15.379,3.767,20.067a1.447,1.447,0,0,1-1.148,2.327Z" transform="translate(-1227.389 -2359.8)" fill="#6b184e"/>
              </g>
            </g>
          </g>
        </g>
      </g>
      <g id="Grupo_120562" data-name="Grupo 120562" transform="translate(67.792 94.799)">
        <g id="Grupo_120561" data-name="Grupo 120561">
          <g id="Grupo_120560" data-name="Grupo 120560">
            <g id="Grupo_120559" data-name="Grupo 120559">
              <g id="Grupo_120558" data-name="Grupo 120558">
                <path id="Trazado_119453" data-name="Trazado 119453" d="M993.608,1350.956c-.51,0-1.027,0-1.538-.012l-.17,0-.154,0c-.6-.01-1.127-.023-1.609-.042-.519-.015-1.086-.039-1.733-.071l-.256-.012c-.388-.019-.774-.041-1.167-.063l-.115-.007-.071,0c-.037,0-.078,0-.123-.01-.585-.039-1.172-.082-1.748-.127a1.438,1.438,0,0,1-.187-.015c-3.318-.206-5.606-1.148-6.992-2.879a7.557,7.557,0,0,1-1.225-6.159,17.31,17.31,0,0,0,.119-1.779c0-.007,0-.015,0-.02.17-10.527-8.953-18.855-18.069-22.439-8.392-3.3-19.922-3.979-27.113,4.009l-.008.009c-.173.189-.337.383-.475.547l-.031.036a6.969,6.969,0,0,1-5.11,2.667c-2.329.073-4.747-1.117-7-3.444l-.048-.045-.693-.681c-.489-.484-.925-.927-1.339-1.356l-.111-.114c-.085-.087-.17-.173-.252-.262-.241-.249-.481-.5-.714-.751-.216-.229-.429-.458-.641-.687l-.007-.007c-.686-.75-1.293-1.43-1.857-2.079-.25-.288-.5-.571-.736-.853a92.537,92.537,0,0,1-6.922-9.277c-.112-.168-.232-.35-.35-.54-.24-.372-.475-.744-.71-1.115l-.013-.021-.241-.395-.246-.4a87.263,87.263,0,0,1-5.241-10.062c-.117-.264-.233-.533-.344-.794-.245-.578-.565-1.337-.872-2.122-.123-.3-.242-.613-.356-.917-.8-2.094-1.519-4.248-2.14-6.4-.072-.245-.14-.5-.205-.737-.078-.267-.155-.55-.23-.841-.084-.314-.163-.629-.241-.933-.095-.358-.181-.718-.263-1.066-.053-.223-.114-.485-.172-.752s-.116-.5-.167-.748c-.161-.735-.313-1.49-.452-2.245-.048-.246-.1-.509-.141-.783-.033-.181-.067-.368-.1-.559-.1-.6-.186-1.14-.26-1.655l-.075-.54c-.033-.225-.064-.463-.091-.707-.165-1.276-.293-2.523-.381-3.709-.026-.273-.043-.54-.06-.8-.06-.874-.1-1.8-.131-2.755v-.02c-.008-.255-.016-.52-.02-.787,0-.008,0-.015,0-.023,0-.029,0-.058,0-.087,0-.052,0-.1,0-.157v-.006c0-.343-.008-.7-.008-1.053a72.9,72.9,0,0,1,18.092-48.043,80.123,80.123,0,0,1,12.172-11.322,87.353,87.353,0,0,1,14.453-8.818,97.255,97.255,0,0,1,33.911-9.27,109.573,109.573,0,0,1,71.757,19.166,97.248,97.248,0,0,1,24.771,24.943,87.33,87.33,0,0,1,8.131,14.849,80.122,80.122,0,0,1,4.906,15.883,72.895,72.895,0,0,1-12.822,57.627,79.452,79.452,0,0,1-19.516,18.631,91.2,91.2,0,0,1-25.246,11.855A101.71,101.71,0,0,1,993.608,1350.956Zm-1.828-2.911.177,0,.149,0c.5.008,1,.012,1.5.012,40.388,0,73.639-22.889,82.74-56.956,11.373-42.582-19.541-87.957-68.914-101.147a106.063,106.063,0,0,0-27.357-3.626c-39.117,0-73.561,22.29-82.817,56.943a69.832,69.832,0,0,0-2.366,18.023c0,.338,0,.669.008,1.019v.015c0,.006,0,.011,0,.017,0,.032,0,.063,0,.094,0,.049,0,.1,0,.145,0,.242.011.481.019.734v.025c.025.918.067,1.806.125,2.646.017.259.032.5.055.729,0,.011,0,.021,0,.032.085,1.142.209,2.347.368,3.581l0,.026c.024.216.051.425.08.622l0,.012.074.537c.071.488.153,1.01.25,1.59l0,.012c.026.166.057.335.09.514l0,.025c.041.253.084.493.128.716l0,.017c.134.729.281,1.459.437,2.169l0,.021c.045.22.094.44.15.673l.008.033c.054.248.113.5.163.713.083.347.161.676.247,1l0,.016c.076.3.155.611.235.913l0,.012c.069.268.14.527.211.77l.008.027c.063.233.128.473.195.7.6,2.076,1.3,4.154,2.068,6.181q.165.439.337.868l.006.014c.229.587.488,1.218.84,2.044.106.248.218.508.33.76a84.371,84.371,0,0,0,5.068,9.729l.241.394.239.391c.231.365.462.73.7,1.095l.014.022c.1.16.207.323.309.476l.009.013a89.638,89.638,0,0,0,6.706,8.988c.233.273.472.549.712.825.551.634,1.141,1.295,1.808,2.024.207.223.413.446.624.669l.006.007c.225.241.457.485.69.726l.017.018c.07.075.142.148.214.222l.124.128c.4.415.82.841,1.289,1.3l.653.642c.023.02.049.044.076.071l.021.021c1.656,1.726,3.383,2.651,4.864,2.6a4.125,4.125,0,0,0,3.013-1.668h0l.017-.02c.146-.174.335-.4.538-.619a22.255,22.255,0,0,1,14.123-7.06,33.516,33.516,0,0,1,16.2,2.3,35.677,35.677,0,0,1,14.059,9.844,23.127,23.127,0,0,1,5.846,15.325c0,.005,0,.011,0,.014a20.2,20.2,0,0,1-.142,2.12c0,.022-.005.043-.009.065A4.806,4.806,0,0,0,980,1345.9c.846,1.057,2.531,1.664,5.007,1.8.037,0,.074.005.111.01.6.047,1.2.091,1.809.131l.057.005.042,0,.116.007c.384.022.762.044,1.14.062l.259.012c.633.032,1.181.055,1.681.069h.014C990.7,1348.023,991.2,1348.036,991.78,1348.045Zm-4.493-.13,0,0Zm0,0h0Zm-2.967-.059-.01,0Zm2.62,0h0Zm-57.077-26.9h0Zm-9.034-1.918h0Zm-.1-.093h0Z" transform="translate(-892 -1183.422)" fill="#6b184e"/>
              </g>
            </g>
          </g>
        </g>
      </g>
      <g id="Grupo_120567" data-name="Grupo 120567" transform="translate(153.352 215.475)">
        <g id="Grupo_120566" data-name="Grupo 120566">
          <g id="Grupo_120565" data-name="Grupo 120565">
            <g id="Grupo_120564" data-name="Grupo 120564">
              <g id="Grupo_120563" data-name="Grupo 120563">
                <path id="Trazado_119454" data-name="Trazado 119454" d="M1928.047,2685.939a1.447,1.447,0,0,1-1.074-2.417c2.989-3.315,5.407-10.369,6.47-18.87.994-7.951.605-15.821-.989-20.049a1.447,1.447,0,0,1,2.708-1.021c1.775,4.706,2.216,12.917,1.153,21.429-1.15,9.2-3.771,16.655-7.192,20.449A1.443,1.443,0,0,1,1928.047,2685.939Z" transform="translate(-1926.6 -2642.646)" fill="#6b184e"/>
              </g>
            </g>
          </g>
        </g>
      </g>
      <g id="Grupo_120572" data-name="Grupo 120572" transform="translate(96.939 191.532)" opacity="0.1">
        <g id="Grupo_120571" data-name="Grupo 120571">
          <g id="Grupo_120570" data-name="Grupo 120570">
            <g id="Grupo_120569" data-name="Grupo 120569">
              <g id="Grupo_120568" data-name="Grupo 120568">
                <path id="Trazado_119455" data-name="Trazado 119455" d="M1309.156,2400.285c-1.365,9.4-2.885,15.895-7.764,18.008.161-.368-.192.193-.051-.175.215-.55-.777.328-.616-.218a20.4,20.4,0,0,0,.62-2.7,19.7,19.7,0,0,0,.256-3.163c0-.227,0-.451-.012-.678-.012-.393-.041-.79-.079-1.178-.008-.1-.017-.19-.029-.281-.021-.186-.041-.373-.07-.554s-.05-.36-.083-.537c-.008-.062-.021-.124-.033-.186q-.037-.229-.087-.459c-.016-.087-.033-.17-.054-.256a.4.4,0,0,0-.017-.07c-.029-.153-.066-.3-.1-.455-.054-.215-.107-.43-.169-.641s-.116-.4-.178-.6a.277.277,0,0,1-.012-.033c-.05-.165-.1-.335-.165-.5-.037-.112-.074-.223-.116-.331a.169.169,0,0,0-.017-.042c-.1-.273-.2-.542-.31-.81-.012-.029-.025-.054-.033-.079-.05-.116-.1-.228-.149-.343-.153-.356-.318-.7-.492-1.05-.083-.174-.174-.347-.265-.517q-.167-.316-.347-.633c-.1-.173-.2-.347-.306-.521-.12-.2-.244-.393-.372-.591-.1-.149-.194-.3-.294-.447-.058-.087-.12-.178-.182-.265q-.533-.769-1.125-1.5c-7.8-9.692-22.995-15.005-34.395-10.982-.178.062-.36.128-.537.2-.132.05-.265.1-.4.157-.227.091-.455.186-.678.29q-.267.118-.533.248c-.2.095-.4.2-.6.3l-.207.112c-.153.083-.306.165-.455.256-.215.12-.43.248-.641.381-.087.053-.174.107-.26.165-.12.074-.24.153-.356.236-.219.145-.434.3-.645.455-.074.054-.149.112-.223.169-.136.1-.269.207-.4.314-.2.157-.4.323-.591.492-.074.066-.149.128-.223.2-.174.153-.339.306-.5.463s-.314.306-.467.467c-.025.025-.05.05-.07.074q-.254.26-.5.533c-.124.136-.244.277-.364.422a.161.161,0,0,0-.033.041q-.143.168-.273.335c-.136.165-.269.335-.4.5s-.261.351-.385.533c-.075.1-.141.2-.211.3-.116.169-.232.343-.343.521-.124.194-.244.389-.36.587-.054.091-.108.182-.161.277-.116.2.17-.833.058-.623s-.509.32-.62.552c-.029.054-.453.009-.478.066a2.148,2.148,0,0,0-.108.244l-.586-.207c-4.606-6.083-5.548-11.689-4.949-19.264.682-8.721,4.226-17.193,9.279-22.564a12.788,12.788,0,0,0,5.946,0c21.159-5.057,37.285,1.708,47.655,22.022.058.124.12.244.182.36a10.512,10.512,0,0,0,.6,1.009C1310.128,2383.026,1310.38,2391.879,1309.156,2400.285Z" transform="translate(-1244.452 -2353.128)" fill="#6b184e"/>
              </g>
            </g>
          </g>
        </g>
      </g>
      <g id="Grupo_120577" data-name="Grupo 120577" transform="translate(153.789 248.981)" opacity="0.25">
        <g id="Grupo_120576" data-name="Grupo 120576">
          <g id="Grupo_120575" data-name="Grupo 120575">
            <g id="Grupo_120574" data-name="Grupo 120574">
              <g id="Grupo_120573" data-name="Grupo 120573">
                <path id="Trazado_119456" data-name="Trazado 119456" d="M1931.882,3047.794c.037.389.066.781.079,1.178C1931.948,3048.58,1931.919,3048.183,1931.882,3047.794Z" transform="translate(-1931.882 -3047.794)" fill="#6b184e"/>
              </g>
            </g>
          </g>
        </g>
      </g>
      <g id="Grupo_120582" data-name="Grupo 120582" transform="translate(207.64 212.624)">
        <g id="Grupo_120581" data-name="Grupo 120581">
          <g id="Grupo_120580" data-name="Grupo 120580">
            <g id="Grupo_120579" data-name="Grupo 120579">
              <g id="Grupo_120578" data-name="Grupo 120578">
                <path id="Trazado_119457" data-name="Trazado 119457" d="M2583.2,2617.107a2.27,2.27,0,0,1,.1-.231c.035-.075.075-.144.113-.228s.079-.16.123-.238c.021-.04.043-.078.065-.117s.042-.083.064-.125c.177-.325.379-.658.563-1,.091-.176.185-.349.275-.527l.266-.538.262-.546c.087-.183.17-.368.255-.553.338-.741.662-1.495.98-2.255s.624-1.528.913-2.3l0-.007a.418.418,0,0,1,.809.164c-.033.855-.119,1.7-.225,2.536s-.241,1.678-.4,2.516c-.042.209-.081.419-.127.628l-.137.63-.155.63c-.053.21-.114.421-.171.632a6.657,6.657,0,0,1-1.148,2.513,1.447,1.447,0,0,1-2.5-1.374Z" transform="translate(-2583.054 -2608.169)" fill="#6b184e"/>
              </g>
            </g>
          </g>
        </g>
      </g>
      <g id="Grupo_120587" data-name="Grupo 120587" transform="translate(139.929 153.328)" opacity="0.3">
        <g id="Grupo_120586" data-name="Grupo 120586">
          <g id="Grupo_120585" data-name="Grupo 120585">
            <g id="Grupo_120584" data-name="Grupo 120584">
              <g id="Grupo_120583" data-name="Grupo 120583">
                <path id="Trazado_119458" data-name="Trazado 119458" d="M1819.364,1918.584c-1.476-27.59-39.989-36.411-55.075-16.966l5.309,6.528c16.5-11.873,34.094-6.886,38.414,12.758C1808.012,1920.9,1811.33,1921.915,1819.364,1918.584Z" transform="translate(-1764.289 -1891.161)" fill="#6b184e"/>
              </g>
            </g>
          </g>
        </g>
      </g>
      <g id="Grupo_120592" data-name="Grupo 120592" transform="translate(68.467 174.341)" opacity="0.25">
        <g id="Grupo_120591" data-name="Grupo 120591">
          <g id="Grupo_120590" data-name="Grupo 120590">
            <g id="Grupo_120589" data-name="Grupo 120589">
              <g id="Grupo_120588" data-name="Grupo 120588">
                <path id="Trazado_119459" data-name="Trazado 119459" d="M933.273,2206.077c-18.119-14.6-29.949-34.552-32.637-55.669-.3-3.267-.471-5.156-.471-5.156,2.845,15.7,13.145,29.068,27.539,39.406C927.1,2192.233,928.666,2199.995,933.273,2206.077Z" transform="translate(-900.164 -2145.252)" fill="#6b184e"/>
              </g>
            </g>
          </g>
        </g>
      </g>
      <g id="Grupo_120597" data-name="Grupo 120597" transform="translate(153.004 254.001)" opacity="0.3">
        <g id="Grupo_120596" data-name="Grupo 120596">
          <g id="Grupo_120595" data-name="Grupo 120595">
            <g id="Grupo_120594" data-name="Grupo 120594">
              <g id="Grupo_120593" data-name="Grupo 120593">
                <path id="Trazado_119460" data-name="Trazado 119460" d="M1923,3108.494a20.387,20.387,0,0,1-.62,2.7A21.066,21.066,0,0,0,1923,3108.494Z" transform="translate(-1922.382 -3108.494)" fill="#6b184e"/>
              </g>
            </g>
          </g>
        </g>
      </g>
      <g id="Grupo_120602" data-name="Grupo 120602" transform="translate(82.825 166.485)" opacity="0.3">
        <g id="Grupo_120601" data-name="Grupo 120601">
          <g id="Grupo_120600" data-name="Grupo 120600">
            <g id="Grupo_120599" data-name="Grupo 120599">
              <g id="Grupo_120598" data-name="Grupo 120598">
                <path id="Trazado_119461" data-name="Trazado 119461" d="M1244.162,2050.25c.029,1.774.029,3.523-.012,5.248a27.439,27.439,0,0,0-.608-4.3c-.194,3.349-2.3,12.314-3.283,15.576a58.676,58.676,0,0,1-3.6,9.192c0,.008-.008.021-.012.029q-1,2.034-2.138,3.9a.014.014,0,0,1,0,.008c-6.025,8.489-16.78,8.812-19.409,18.537a16.559,16.559,0,0,0-.537,3.213c-.529,16.891-13.22,21.279-14.745,3.659-6.711,10.681-15.829,13.852-24.512,3.99a16.407,16.407,0,0,0-13.476-5.454c-4.325.3-8.249.645-10.846-3.159a10.481,10.481,0,0,1-.6-1.009c-.062-.116-.124-.236-.182-.36-10.37-20.315-26.5-27.08-47.655-22.023a12.785,12.785,0,0,1-5.946,0,12.521,12.521,0,0,1-6.455-3.866c-.017-.02-.037-.041-.054-.062a6.034,6.034,0,0,0-8.348-.633c-4.135,3.345-7.021,1.865-7.877-4.561-.645,12.529,2.63,16.469,8.063,12.074a6.034,6.034,0,0,1,8.348.632c.017.021.037.042.054.063a12.524,12.524,0,0,0,6.455,3.866,12.791,12.791,0,0,0,5.946,0c21.159-5.057,37.285,1.708,47.656,22.022.058.124.12.244.182.36a10.486,10.486,0,0,0,.6,1.009c2.6,3.8,6.521,3.461,10.846,3.159a16.408,16.408,0,0,1,13.476,5.454c7.422,8.427,15.155,7.34,21.44.178a2.3,2.3,0,0,1,3.957.889,11.859,11.859,0,0,0,.645,1.745,3.476,3.476,0,0,1-2.1,4.776c-13.745,4.408-29.983,5.388-47.854,3-1.12,7.716-2.927,11.987-6.235,14.435a7.147,7.147,0,0,0,3.552,2.184c44.335,4.834,85.263-18.7,95.6-57.4.087-.323.169-.649.252-.976C1247.528,2074.3,1246.635,2061.208,1244.162,2050.25Zm-4.59,34.271c-4.193,12.872-11.189,23.119-20.737,30.14a1.569,1.569,0,0,1-2.419-1.749,25.107,25.107,0,0,0,1.158-6.847,16.583,16.583,0,0,1,.537-3.217c2.63-9.725,10.552-6.942,16.577-15.432a.014.014,0,0,0,0-.008q1.128-1.867,2.138-3.9c0-.008.008-.021.012-.029a.823.823,0,0,1,.042-.087A1.463,1.463,0,0,1,1239.572,2084.521Z" transform="translate(-1073.775 -2050.25)" fill="#6b184e"/>
              </g>
            </g>
          </g>
        </g>
      </g>
      <g id="Grupo_120607" data-name="Grupo 120607" transform="translate(220.142 152.664)" opacity="0.25">
        <g id="Grupo_120606" data-name="Grupo 120606">
          <g id="Grupo_120605" data-name="Grupo 120605">
            <g id="Grupo_120604" data-name="Grupo 120604">
              <g id="Grupo_120603" data-name="Grupo 120603">
                <path id="Trazado_119462" data-name="Trazado 119462" d="M2753.048,1903.905c-3.374,8.475-13.723,11.563-17.416,10.093s.67-6.941,4.043-15.416,4.481-16.746,8.174-15.276S2756.422,1895.43,2753.048,1903.905Z" transform="translate(-2734.225 -1883.136)" fill="#fce5e5"/>
              </g>
            </g>
          </g>
        </g>
      </g>
      <g id="Grupo_120612" data-name="Grupo 120612" transform="translate(98.544 127.432)" opacity="0.25">
        <g id="Grupo_120611" data-name="Grupo 120611">
          <g id="Grupo_120610" data-name="Grupo 120610">
            <g id="Grupo_120609" data-name="Grupo 120609">
              <g id="Grupo_120608" data-name="Grupo 120608">
                <path id="Trazado_119463" data-name="Trazado 119463" d="M1264.136,1591.248c1.744-8.954,11.341-13.906,15.243-13.147s.629,6.944-1.115,15.9-1.3,17.287-5.2,16.527S1262.392,1600.2,1264.136,1591.248Z" transform="translate(-1263.854 -1578.025)" fill="#fce5e5"/>
              </g>
            </g>
          </g>
        </g>
      </g>
      <g id="Grupo_120617" data-name="Grupo 120617" transform="translate(110.284 207.931)" opacity="0.3">
        <g id="Grupo_120616" data-name="Grupo 120616">
          <g id="Grupo_120615" data-name="Grupo 120615">
            <g id="Grupo_120614" data-name="Grupo 120614">
              <g id="Grupo_120613" data-name="Grupo 120613">
                <ellipse id="Elipse_4256" data-name="Elipse 4256" cx="2.04" cy="2.942" rx="2.04" ry="2.942" fill="#6b184e"/>
              </g>
            </g>
          </g>
        </g>
      </g>
      <g id="Grupo_120622" data-name="Grupo 120622" transform="translate(134.251 219.887)" opacity="0.3">
        <g id="Grupo_120621" data-name="Grupo 120621" transform="translate(0 0)">
          <g id="Grupo_120620" data-name="Grupo 120620" transform="translate(0)">
            <g id="Grupo_120619" data-name="Grupo 120619">
              <g id="Grupo_120618" data-name="Grupo 120618">
                <ellipse id="Elipse_4257" data-name="Elipse 4257" cx="2.431" cy="2.04" rx="2.431" ry="2.04" transform="translate(0 4.161) rotate(-58.851)" fill="#6b184e"/>
              </g>
            </g>
          </g>
        </g>
      </g>
      <g id="Grupo_120627" data-name="Grupo 120627" transform="translate(129.266 203.271)" opacity="0.3">
        <g id="Grupo_120626" data-name="Grupo 120626" transform="translate(0 0)">
          <g id="Grupo_120625" data-name="Grupo 120625" transform="translate(0)">
            <g id="Grupo_120624" data-name="Grupo 120624">
              <g id="Grupo_120623" data-name="Grupo 120623">
                <ellipse id="Elipse_4258" data-name="Elipse 4258" cx="1.656" cy="1.148" rx="1.656" ry="1.148" transform="translate(0 3.115) rotate(-70.123)" fill="#6b184e"/>
              </g>
            </g>
          </g>
        </g>
      </g>
      <g id="Grupo_120632" data-name="Grupo 120632" transform="translate(152.279 230.827)" opacity="0.3">
        <g id="Grupo_120631" data-name="Grupo 120631">
          <g id="Grupo_120630" data-name="Grupo 120630">
            <g id="Grupo_120629" data-name="Grupo 120629">
              <g id="Grupo_120628" data-name="Grupo 120628">
                <circle id="Elipse_4259" data-name="Elipse 4259" cx="1.148" cy="1.148" r="1.148" fill="#6b184e"/>
              </g>
            </g>
          </g>
        </g>
      </g>
      <g id="Grupo_120637" data-name="Grupo 120637" transform="translate(105.425 221.532)" opacity="0.3">
        <g id="Grupo_120636" data-name="Grupo 120636">
          <g id="Grupo_120635" data-name="Grupo 120635">
            <g id="Grupo_120634" data-name="Grupo 120634">
              <g id="Grupo_120633" data-name="Grupo 120633">
                <circle id="Elipse_4260" data-name="Elipse 4260" cx="0.821" cy="0.821" r="0.821" fill="#6b184e"/>
              </g>
            </g>
          </g>
        </g>
      </g>
      <g id="Grupo_120642" data-name="Grupo 120642" transform="translate(146.617 213.405)" opacity="0.3">
        <g id="Grupo_120641" data-name="Grupo 120641">
          <g id="Grupo_120640" data-name="Grupo 120640">
            <g id="Grupo_120639" data-name="Grupo 120639">
              <g id="Grupo_120638" data-name="Grupo 120638">
                <circle id="Elipse_4261" data-name="Elipse 4261" cx="0.581" cy="0.581" r="0.581" fill="#6b184e"/>
              </g>
            </g>
          </g>
        </g>
      </g>
      <g id="Grupo_120647" data-name="Grupo 120647" transform="translate(151.987 220.791)" opacity="0.3">
        <g id="Grupo_120646" data-name="Grupo 120646">
          <g id="Grupo_120645" data-name="Grupo 120645">
            <g id="Grupo_120644" data-name="Grupo 120644">
              <g id="Grupo_120643" data-name="Grupo 120643">
                <circle id="Elipse_4262" data-name="Elipse 4262" cx="0.581" cy="0.581" r="0.581" fill="#6b184e"/>
              </g>
            </g>
          </g>
        </g>
      </g>
      <g id="Grupo_120652" data-name="Grupo 120652" transform="translate(127.366 212.585)" opacity="0.3">
        <g id="Grupo_120651" data-name="Grupo 120651">
          <g id="Grupo_120650" data-name="Grupo 120650">
            <g id="Grupo_120649" data-name="Grupo 120649">
              <g id="Grupo_120648" data-name="Grupo 120648">
                <circle id="Elipse_4263" data-name="Elipse 4263" cx="1.4" cy="1.4" r="1.4" fill="#6b184e"/>
              </g>
            </g>
          </g>
        </g>
      </g>
      <g id="Grupo_120673" data-name="Grupo 120673" transform="translate(98.203 75.913)">
        <g id="Grupo_120657" data-name="Grupo 120657" transform="translate(0.701 0.701)">
          <g id="Grupo_120656" data-name="Grupo 120656" transform="translate(0 0)">
            <g id="Grupo_120655" data-name="Grupo 120655">
              <g id="Grupo_120654" data-name="Grupo 120654">
                <g id="Grupo_120653" data-name="Grupo 120653">
                  <rect id="Rectángulo_35166" data-name="Rectángulo 35166" width="4.776" height="11.861" rx="2.388" transform="translate(0.721 6.511) rotate(-98.68)" fill="#fbe291"/>
                </g>
              </g>
            </g>
          </g>
        </g>
        <g id="Grupo_120662" data-name="Grupo 120662" transform="translate(1.035 1.032)" opacity="0.65">
          <g id="Grupo_120661" data-name="Grupo 120661">
            <g id="Grupo_120660" data-name="Grupo 120660">
              <g id="Grupo_120659" data-name="Grupo 120659">
                <g id="Grupo_120658" data-name="Grupo 120658">
                  <path id="Trazado_119464" data-name="Trazado 119464" d="M1282.183,967.6l-5.813.886a2.387,2.387,0,0,0-.177,4.686l-1.193.185a2.39,2.39,0,0,1-.722-4.726l7-1.068A2.293,2.293,0,0,1,1282.183,967.6Z" transform="translate(-1272.252 -967.532)" fill="#fce5e5"/>
                </g>
              </g>
            </g>
          </g>
        </g>
        <g id="Grupo_120667" data-name="Grupo 120667" transform="translate(6.808 1.033)" opacity="0.3">
          <g id="Grupo_120666" data-name="Grupo 120666">
            <g id="Grupo_120665" data-name="Grupo 120665">
              <g id="Grupo_120664" data-name="Grupo 120664">
                <g id="Grupo_120663" data-name="Grupo 120663">
                  <path id="Trazado_119465" data-name="Trazado 119465" d="M1348.033,969.574a2.385,2.385,0,0,1-2,2.718l-3.271.5a2.389,2.389,0,0,0-.707-4.726l3.257-.5A2.389,2.389,0,0,1,1348.033,969.574Z" transform="translate(-1342.055 -967.543)" fill="#6b184e"/>
                </g>
              </g>
            </g>
          </g>
        </g>
        <g id="Grupo_120672" data-name="Grupo 120672">
          <g id="Grupo_120671" data-name="Grupo 120671">
            <g id="Grupo_120670" data-name="Grupo 120670">
              <g id="Grupo_120669" data-name="Grupo 120669">
                <g id="Grupo_120668" data-name="Grupo 120668">
                  <path id="Trazado_119466" data-name="Trazado 119466" d="M1263.148,962.963a3.422,3.422,0,0,1-.509-6.8l7-1.069a3.422,3.422,0,1,1,1.033,6.765l-7,1.069A3.474,3.474,0,0,1,1263.148,962.963Zm7.014-5.846a1.379,1.379,0,0,0-.207.016l-7,1.069a1.354,1.354,0,1,0,.409,2.677l7-1.069a1.356,1.356,0,0,0,1.135-1.543h0a1.355,1.355,0,0,0-1.336-1.15Z" transform="translate(-1259.733 -955.049)" fill="#6b184e"/>
                </g>
              </g>
            </g>
          </g>
        </g>
      </g>
      <g id="Grupo_120678" data-name="Grupo 120678" transform="translate(216.018 155.297)" opacity="0.3">
        <g id="Grupo_120677" data-name="Grupo 120677" transform="translate(0 0)">
          <g id="Grupo_120676" data-name="Grupo 120676">
            <g id="Grupo_120675" data-name="Grupo 120675">
              <g id="Grupo_120674" data-name="Grupo 120674">
                <rect id="Rectángulo_35167" data-name="Rectángulo 35167" width="4.776" height="11.861" rx="2.388" transform="translate(0 2.066) rotate(-25.629)" fill="#6b184e"/>
              </g>
            </g>
          </g>
        </g>
      </g>
      <g id="Grupo_120683" data-name="Grupo 120683" transform="translate(202.28 188.921)" opacity="0.3">
        <g id="Grupo_120682" data-name="Grupo 120682" transform="translate(0 0)">
          <g id="Grupo_120681" data-name="Grupo 120681">
            <g id="Grupo_120680" data-name="Grupo 120680">
              <g id="Grupo_120679" data-name="Grupo 120679">
                <rect id="Rectángulo_35168" data-name="Rectángulo 35168" width="4.776" height="12.92" rx="2.388" transform="translate(7.577 0) rotate(35.909)" fill="#6b184e"/>
              </g>
            </g>
          </g>
        </g>
      </g>
      <g id="Grupo_120688" data-name="Grupo 120688" transform="translate(131.368 116.58)" opacity="0.3">
        <g id="Grupo_120687" data-name="Grupo 120687" transform="translate(0 0)">
          <g id="Grupo_120686" data-name="Grupo 120686" transform="translate(0)">
            <g id="Grupo_120685" data-name="Grupo 120685">
              <g id="Grupo_120684" data-name="Grupo 120684">
                <rect id="Rectángulo_35169" data-name="Rectángulo 35169" width="4.776" height="11.861" rx="2.388" transform="translate(0 3.131) rotate(-40.96)" fill="#6b184e"/>
              </g>
            </g>
          </g>
        </g>
      </g>
      <g id="Grupo_120693" data-name="Grupo 120693" transform="translate(116.078 135.44)" opacity="0.3">
        <g id="Grupo_120692" data-name="Grupo 120692" transform="translate(0 0)">
          <g id="Grupo_120691" data-name="Grupo 120691" transform="translate(0)">
            <g id="Grupo_120690" data-name="Grupo 120690">
              <g id="Grupo_120689" data-name="Grupo 120689">
                <rect id="Rectángulo_35170" data-name="Rectángulo 35170" width="5.279" height="11.861" rx="2.639" transform="translate(0 1.036) rotate(-11.315)" fill="#6b184e"/>
              </g>
            </g>
          </g>
        </g>
      </g>
      <g id="Grupo_120698" data-name="Grupo 120698" transform="translate(171.975 119.158)" opacity="0.3">
        <g id="Grupo_120697" data-name="Grupo 120697" transform="translate(0 0)">
          <g id="Grupo_120696" data-name="Grupo 120696">
            <g id="Grupo_120695" data-name="Grupo 120695">
              <g id="Grupo_120694" data-name="Grupo 120694">
                <rect id="Rectángulo_35171" data-name="Rectángulo 35171" width="4.776" height="11.861" rx="2.388" transform="matrix(0.762, 0.647, -0.647, 0.762, 7.676, 0)" fill="#6b184e"/>
              </g>
            </g>
          </g>
        </g>
      </g>
      <g id="Grupo_120703" data-name="Grupo 120703" transform="translate(203.758 125.484)" opacity="0.3">
        <g id="Grupo_120702" data-name="Grupo 120702" transform="translate(0 0)">
          <g id="Grupo_120701" data-name="Grupo 120701">
            <g id="Grupo_120700" data-name="Grupo 120700">
              <g id="Grupo_120699" data-name="Grupo 120699">
                <rect id="Rectángulo_35172" data-name="Rectángulo 35172" width="4.776" height="11.861" rx="2.388" transform="translate(3.221 0) rotate(15.758)" fill="#6b184e"/>
              </g>
            </g>
          </g>
        </g>
      </g>
      <g id="Grupo_120708" data-name="Grupo 120708" transform="translate(116.909 166.044)" opacity="0.3">
        <g id="Grupo_120707" data-name="Grupo 120707" transform="translate(0 0)">
          <g id="Grupo_120706" data-name="Grupo 120706" transform="translate(0 0)">
            <g id="Grupo_120705" data-name="Grupo 120705">
              <g id="Grupo_120704" data-name="Grupo 120704">
                <rect id="Rectángulo_35173" data-name="Rectángulo 35173" width="4.776" height="13.108" rx="2.388" transform="translate(10.849 0) rotate(55.855)" fill="#6b184e"/>
              </g>
            </g>
          </g>
        </g>
      </g>
      <g id="Grupo_120729" data-name="Grupo 120729" transform="translate(200.489 121.398)">
        <g id="Grupo_120713" data-name="Grupo 120713" transform="translate(0.477 0.475)">
          <g id="Grupo_120712" data-name="Grupo 120712" transform="translate(0 0)">
            <g id="Grupo_120711" data-name="Grupo 120711">
              <g id="Grupo_120710" data-name="Grupo 120710">
                <g id="Grupo_120709" data-name="Grupo 120709">
                  <rect id="Rectángulo_35174" data-name="Rectángulo 35174" width="4.776" height="11.861" rx="2.388" transform="translate(3.221 0) rotate(15.758)" fill="#fbe291"/>
                </g>
              </g>
            </g>
          </g>
        </g>
        <g id="Grupo_120718" data-name="Grupo 120718" transform="translate(2.722 1.034)" opacity="0.65">
          <g id="Grupo_120717" data-name="Grupo 120717">
            <g id="Grupo_120716" data-name="Grupo 120716">
              <g id="Grupo_120715" data-name="Grupo 120715">
                <g id="Grupo_120714" data-name="Grupo 120714">
                  <path id="Trazado_119467" data-name="Trazado 119467" d="M2532.076,1528.23l1.6-5.659a2.387,2.387,0,0,0-4.193-2.1l.325-1.163a2.39,2.39,0,0,1,4.6,1.3l-1.925,6.818A2.3,2.3,0,0,1,2532.076,1528.23Z" transform="translate(-2529.481 -1517.569)" fill="#fce5e5"/>
                </g>
              </g>
            </g>
          </g>
        </g>
        <g id="Grupo_120723" data-name="Grupo 120723" transform="translate(1.036 6.407)" opacity="0.3">
          <g id="Grupo_120722" data-name="Grupo 120722">
            <g id="Grupo_120721" data-name="Grupo 120721">
              <g id="Grupo_120720" data-name="Grupo 120720">
                <g id="Grupo_120719" data-name="Grupo 120719">
                  <path id="Trazado_119468" data-name="Trazado 119468" d="M2510.842,1588.677a2.385,2.385,0,0,1-1.647-2.945l.9-3.185a2.389,2.389,0,0,0,4.6,1.312l-.9,3.17A2.389,2.389,0,0,1,2510.842,1588.677Z" transform="translate(-2509.105 -1582.546)" fill="#6b184e"/>
                </g>
              </g>
            </g>
          </g>
        </g>
        <g id="Grupo_120728" data-name="Grupo 120728">
          <g id="Grupo_120727" data-name="Grupo 120727">
            <g id="Grupo_120726" data-name="Grupo 120726">
              <g id="Grupo_120725" data-name="Grupo 120725">
                <g id="Grupo_120724" data-name="Grupo 120724">
                  <path id="Trazado_119469" data-name="Trazado 119469" d="M2500,1518.734a3.434,3.434,0,0,1-.935-.13h0a3.422,3.422,0,0,1-2.364-4.222l1.924-6.819a3.422,3.422,0,0,1,6.586,1.859l-1.925,6.819a3.426,3.426,0,0,1-3.288,2.494Zm1.919-11.6a1.357,1.357,0,0,0-1.3.987l-1.924,6.819a1.353,1.353,0,0,0,.935,1.671h0a1.354,1.354,0,0,0,1.671-.935l1.924-6.819a1.354,1.354,0,0,0-1.3-1.722Z" transform="translate(-2496.572 -1505.07)" fill="#6b184e"/>
                </g>
              </g>
            </g>
          </g>
        </g>
      </g>
      <g id="Grupo_120750" data-name="Grupo 120750" transform="translate(182.055 63.998)">
        <g id="Grupo_120734" data-name="Grupo 120734" transform="translate(0.475 0.475)">
          <g id="Grupo_120733" data-name="Grupo 120733" transform="translate(0 0)">
            <g id="Grupo_120732" data-name="Grupo 120732">
              <g id="Grupo_120731" data-name="Grupo 120731">
                <g id="Grupo_120730" data-name="Grupo 120730">
                  <rect id="Rectángulo_35175" data-name="Rectángulo 35175" width="4.776" height="11.861" rx="2.388" transform="translate(3.221 0) rotate(15.758)" fill="#fbe291"/>
                </g>
              </g>
            </g>
          </g>
        </g>
        <g id="Grupo_120739" data-name="Grupo 120739" transform="translate(2.721 1.034)" opacity="0.65">
          <g id="Grupo_120738" data-name="Grupo 120738">
            <g id="Grupo_120737" data-name="Grupo 120737">
              <g id="Grupo_120736" data-name="Grupo 120736">
                <g id="Grupo_120735" data-name="Grupo 120735">
                  <path id="Trazado_119470" data-name="Trazado 119470" d="M2309.164,834.145l1.6-5.659a2.387,2.387,0,0,0-4.193-2.1l.325-1.163a2.39,2.39,0,0,1,4.6,1.3l-1.925,6.818A2.283,2.283,0,0,1,2309.164,834.145Z" transform="translate(-2306.568 -823.484)" fill="#fce5e5"/>
                </g>
              </g>
            </g>
          </g>
        </g>
        <g id="Grupo_120744" data-name="Grupo 120744" transform="translate(1.035 6.407)" opacity="0.3">
          <g id="Grupo_120743" data-name="Grupo 120743">
            <g id="Grupo_120742" data-name="Grupo 120742">
              <g id="Grupo_120741" data-name="Grupo 120741">
                <g id="Grupo_120740" data-name="Grupo 120740">
                  <path id="Trazado_119471" data-name="Trazado 119471" d="M2287.929,894.591a2.384,2.384,0,0,1-1.646-2.945l.9-3.185a2.389,2.389,0,0,0,4.6,1.311l-.9,3.17A2.389,2.389,0,0,1,2287.929,894.591Z" transform="translate(-2286.192 -888.46)" fill="#6b184e"/>
                </g>
              </g>
            </g>
          </g>
        </g>
        <g id="Grupo_120749" data-name="Grupo 120749">
          <g id="Grupo_120748" data-name="Grupo 120748">
            <g id="Grupo_120747" data-name="Grupo 120747">
              <g id="Grupo_120746" data-name="Grupo 120746">
                <g id="Grupo_120745" data-name="Grupo 120745">
                  <path id="Trazado_119472" data-name="Trazado 119472" d="M2277.093,824.646a3.414,3.414,0,0,1-.928-.129h0a3.426,3.426,0,0,1-2.364-4.222l1.924-6.819a3.422,3.422,0,0,1,6.586,1.859l-1.924,6.819A3.428,3.428,0,0,1,2277.093,824.646Zm-.367-2.119a1.356,1.356,0,0,0,1.671-.936l1.924-6.819a1.354,1.354,0,0,0-2.607-.735l-1.924,6.819a1.356,1.356,0,0,0,.936,1.671Z" transform="translate(-2273.672 -810.983)" fill="#6b184e"/>
                </g>
              </g>
            </g>
          </g>
        </g>
      </g>
      <g id="Grupo_120771" data-name="Grupo 120771" transform="translate(217.767 148.399)">
        <g id="Grupo_120755" data-name="Grupo 120755" transform="translate(0.286 0.286)">
          <g id="Grupo_120754" data-name="Grupo 120754" transform="translate(0 0)">
            <g id="Grupo_120753" data-name="Grupo 120753">
              <g id="Grupo_120752" data-name="Grupo 120752">
                <g id="Grupo_120751" data-name="Grupo 120751">
                  <rect id="Rectángulo_35176" data-name="Rectángulo 35176" width="4.776" height="11.861" rx="2.388" transform="translate(0 1.883) rotate(-23.222)" fill="#fbe291"/>
                </g>
              </g>
            </g>
          </g>
        </g>
        <g id="Grupo_120760" data-name="Grupo 120760" transform="translate(1.031 1.033)" opacity="0.65">
          <g id="Grupo_120759" data-name="Grupo 120759">
            <g id="Grupo_120758" data-name="Grupo 120758">
              <g id="Grupo_120757" data-name="Grupo 120757">
                <g id="Grupo_120756" data-name="Grupo 120756">
                  <path id="Trazado_119473" data-name="Trazado 119473" d="M2725.545,1852.886l-2.318-5.4a2.387,2.387,0,0,0-4.58,1.005l-.479-1.108a2.39,2.39,0,0,1,4.393-1.885l2.793,6.511A2.294,2.294,0,0,1,2725.545,1852.886Z" transform="translate(-2717.975 -1844.047)" fill="#fce5e5"/>
                </g>
              </g>
            </g>
          </g>
        </g>
        <g id="Grupo_120765" data-name="Grupo 120765" transform="translate(2.716 5.962)" opacity="0.3">
          <g id="Grupo_120764" data-name="Grupo 120764">
            <g id="Grupo_120763" data-name="Grupo 120763">
              <g id="Grupo_120762" data-name="Grupo 120762">
                <g id="Grupo_120761" data-name="Grupo 120761">
                  <path id="Trazado_119474" data-name="Trazado 119474" d="M2742.785,1909.808a2.384,2.384,0,0,1-3.133-1.254l-1.307-3.04a2.389,2.389,0,0,0,4.4-1.871l1.3,3.028A2.39,2.39,0,0,1,2742.785,1909.808Z" transform="translate(-2738.346 -1903.642)" fill="#6b184e"/>
                </g>
              </g>
            </g>
          </g>
        </g>
        <g id="Grupo_120770" data-name="Grupo 120770">
          <g id="Grupo_120769" data-name="Grupo 120769">
            <g id="Grupo_120768" data-name="Grupo 120768">
              <g id="Grupo_120767" data-name="Grupo 120767">
                <g id="Grupo_120766" data-name="Grupo 120766">
                  <path id="Trazado_119475" data-name="Trazado 119475" d="M2711.72,1844.91a3.43,3.43,0,0,1-3.145-2.075l-2.794-6.511a3.422,3.422,0,1,1,6.289-2.7l2.794,6.511a3.426,3.426,0,0,1-1.8,4.494h0A3.418,3.418,0,0,1,2711.72,1844.91Zm-2.8-11.289a1.354,1.354,0,0,0-1.243,1.888l2.794,6.511a1.354,1.354,0,0,0,1.778.711h0a1.356,1.356,0,0,0,.71-1.778l-2.793-6.511A1.356,1.356,0,0,0,2708.925,1833.621Z" transform="translate(-2705.505 -1831.554)" fill="#6b184e"/>
                </g>
              </g>
            </g>
          </g>
        </g>
      </g>
      <g id="Grupo_120792" data-name="Grupo 120792" transform="translate(132.958 59.972)">
        <g id="Grupo_120776" data-name="Grupo 120776" transform="translate(0.287 0.286)">
          <g id="Grupo_120775" data-name="Grupo 120775" transform="translate(0 0)">
            <g id="Grupo_120774" data-name="Grupo 120774">
              <g id="Grupo_120773" data-name="Grupo 120773">
                <g id="Grupo_120772" data-name="Grupo 120772">
                  <rect id="Rectángulo_35177" data-name="Rectángulo 35177" width="4.776" height="11.861" rx="2.388" transform="matrix(0.919, -0.394, 0.394, 0.919, 0, 1.883)" fill="#fbe291"/>
                </g>
              </g>
            </g>
          </g>
        </g>
        <g id="Grupo_120781" data-name="Grupo 120781" transform="translate(1.033 1.033)" opacity="0.65">
          <g id="Grupo_120780" data-name="Grupo 120780">
            <g id="Grupo_120779" data-name="Grupo 120779">
              <g id="Grupo_120778" data-name="Grupo 120778">
                <g id="Grupo_120777" data-name="Grupo 120777">
                  <path id="Trazado_119476" data-name="Trazado 119476" d="M1700.054,783.633l-2.318-5.4a2.387,2.387,0,0,0-4.58,1.005l-.479-1.108a2.39,2.39,0,0,1,4.393-1.885l2.793,6.511A2.3,2.3,0,0,1,1700.054,783.633Z" transform="translate(-1692.483 -774.795)" fill="#fce5e5"/>
                </g>
              </g>
            </g>
          </g>
        </g>
        <g id="Grupo_120786" data-name="Grupo 120786" transform="translate(2.718 5.962)" opacity="0.3">
          <g id="Grupo_120785" data-name="Grupo 120785">
            <g id="Grupo_120784" data-name="Grupo 120784">
              <g id="Grupo_120783" data-name="Grupo 120783">
                <g id="Grupo_120782" data-name="Grupo 120782">
                  <path id="Trazado_119477" data-name="Trazado 119477" d="M1717.294,840.554a2.385,2.385,0,0,1-3.133-1.254l-1.307-3.04a2.389,2.389,0,0,0,4.4-1.871l1.3,3.029A2.389,2.389,0,0,1,1717.294,840.554Z" transform="translate(-1712.854 -834.389)" fill="#6b184e"/>
                </g>
              </g>
            </g>
          </g>
        </g>
        <g id="Grupo_120791" data-name="Grupo 120791">
          <g id="Grupo_120790" data-name="Grupo 120790">
            <g id="Grupo_120789" data-name="Grupo 120789">
              <g id="Grupo_120788" data-name="Grupo 120788">
                <g id="Grupo_120787" data-name="Grupo 120787">
                  <path id="Trazado_119478" data-name="Trazado 119478" d="M1686.212,775.655a3.427,3.427,0,0,1-3.149-2.073l-2.793-6.511a3.422,3.422,0,1,1,6.289-2.7l2.793,6.511a3.425,3.425,0,0,1-1.8,4.494h0A3.4,3.4,0,0,1,1686.212,775.655Zm.529-2.177.408.95-.407-.95a1.356,1.356,0,0,0,.71-1.779l-2.794-6.511a1.354,1.354,0,1,0-2.489,1.068l2.794,6.511A1.356,1.356,0,0,0,1686.742,773.478Z" transform="translate(-1679.991 -762.301)" fill="#6b184e"/>
                </g>
              </g>
            </g>
          </g>
        </g>
      </g>
      <g id="Grupo_120813" data-name="Grupo 120813" transform="translate(170.542 114.291)">
        <g id="Grupo_120797" data-name="Grupo 120797" transform="translate(0.056 0.056)">
          <g id="Grupo_120796" data-name="Grupo 120796" transform="translate(0 0)">
            <g id="Grupo_120795" data-name="Grupo 120795">
              <g id="Grupo_120794" data-name="Grupo 120794">
                <g id="Grupo_120793" data-name="Grupo 120793">
                  <rect id="Rectángulo_35178" data-name="Rectángulo 35178" width="4.776" height="11.861" rx="2.388" transform="translate(7.676 0) rotate(40.329)" fill="#ed2e7a"/>
                </g>
              </g>
            </g>
          </g>
        </g>
        <g id="Grupo_120802" data-name="Grupo 120802" transform="translate(4.539 1.033)" opacity="0.65">
          <g id="Grupo_120801" data-name="Grupo 120801">
            <g id="Grupo_120800" data-name="Grupo 120800">
              <g id="Grupo_120799" data-name="Grupo 120799">
                <g id="Grupo_120798" data-name="Grupo 120798">
                  <path id="Trazado_119479" data-name="Trazado 119479" d="M2189.343,1441.521l3.806-4.482a2.387,2.387,0,0,0-2.94-3.653l.779-.922a2.39,2.39,0,0,1,3.645,3.094l-4.586,5.4A2.29,2.29,0,0,1,2189.343,1441.521Z" transform="translate(-2189.343 -1431.622)" fill="#fce5e5"/>
                </g>
              </g>
            </g>
          </g>
        </g>
        <g id="Grupo_120807" data-name="Grupo 120807" transform="translate(1.035 4.755)" opacity="0.3">
          <g id="Grupo_120806" data-name="Grupo 120806">
            <g id="Grupo_120805" data-name="Grupo 120805">
              <g id="Grupo_120804" data-name="Grupo 120804">
                <g id="Grupo_120803" data-name="Grupo 120803">
                  <path id="Trazado_119480" data-name="Trazado 119480" d="M2147.807,1482.509a2.384,2.384,0,0,1-.273-3.363l2.14-2.524a2.389,2.389,0,0,0,3.634,3.1l-2.134,2.51A2.389,2.389,0,0,1,2147.807,1482.509Z" transform="translate(-2146.966 -1476.622)" fill="#6b184e"/>
                </g>
              </g>
            </g>
          </g>
        </g>
        <g id="Grupo_120812" data-name="Grupo 120812">
          <g id="Grupo_120811" data-name="Grupo 120811">
            <g id="Grupo_120810" data-name="Grupo 120810">
              <g id="Grupo_120809" data-name="Grupo 120809">
                <g id="Grupo_120808" data-name="Grupo 120808">
                  <path id="Trazado_119481" data-name="Trazado 119481" d="M2137.872,1431.371a3.408,3.408,0,0,1-2.212-.812h0a3.422,3.422,0,0,1-.394-4.823l4.585-5.4a3.422,3.422,0,0,1,5.217,4.429l-4.585,5.4A3.417,3.417,0,0,1,2137.872,1431.371Zm4.59-10.176c-.037,0-.075,0-.113,0a1.346,1.346,0,0,0-.922.473l-4.585,5.4a1.354,1.354,0,0,0,.156,1.909h0a1.356,1.356,0,0,0,1.909-.156l4.585-5.4a1.354,1.354,0,0,0-1.03-2.231Z" transform="translate(-2134.453 -1419.127)" fill="#6b184e"/>
                </g>
              </g>
            </g>
          </g>
        </g>
      </g>
      <g id="Grupo_120834" data-name="Grupo 120834" transform="translate(188.638 35.747)">
        <g id="Grupo_120818" data-name="Grupo 120818" transform="translate(0.108 0.11)">
          <g id="Grupo_120817" data-name="Grupo 120817" transform="translate(0 0)">
            <g id="Grupo_120816" data-name="Grupo 120816">
              <g id="Grupo_120815" data-name="Grupo 120815">
                <g id="Grupo_120814" data-name="Grupo 120814">
                  <rect id="Rectángulo_35179" data-name="Rectángulo 35179" width="4.776" height="11.861" rx="2.388" transform="matrix(0.556, 0.831, -0.831, 0.556, 9.856, 0)" fill="#ed2e7a"/>
                </g>
              </g>
            </g>
          </g>
        </g>
        <g id="Grupo_120823" data-name="Grupo 120823" transform="translate(3.919 1.033)" opacity="0.65">
          <g id="Grupo_120822" data-name="Grupo 120822">
            <g id="Grupo_120821" data-name="Grupo 120821">
              <g id="Grupo_120820" data-name="Grupo 120820">
                <g id="Grupo_120819" data-name="Grupo 120819">
                  <path id="Trazado_119482" data-name="Trazado 119482" d="M2400.666,490.533l4.886-3.271a2.387,2.387,0,0,0-1.829-4.318l1-.674a2.39,2.39,0,0,1,2.66,3.972l-5.887,3.941A2.288,2.288,0,0,1,2400.666,490.533Z" transform="translate(-2400.666 -481.867)" fill="#fce5e5"/>
                </g>
              </g>
            </g>
          </g>
        </g>
        <g id="Grupo_120828" data-name="Grupo 120828" transform="translate(1.033 3.539)" opacity="0.3">
          <g id="Grupo_120827" data-name="Grupo 120827">
            <g id="Grupo_120826" data-name="Grupo 120826">
              <g id="Grupo_120825" data-name="Grupo 120825">
                <g id="Grupo_120824" data-name="Grupo 120824">
                  <path id="Trazado_119483" data-name="Trazado 119483" d="M2366.174,517.323a2.385,2.385,0,0,1,.657-3.31l2.749-1.843a2.389,2.389,0,0,0,2.647,3.979l-2.739,1.832A2.389,2.389,0,0,1,2366.174,517.323Z" transform="translate(-2365.77 -512.17)" fill="#6b184e"/>
                </g>
              </g>
            </g>
          </g>
        </g>
        <g id="Grupo_120833" data-name="Grupo 120833">
          <g id="Grupo_120832" data-name="Grupo 120832">
            <g id="Grupo_120831" data-name="Grupo 120831">
              <g id="Grupo_120830" data-name="Grupo 120830">
                <g id="Grupo_120829" data-name="Grupo 120829">
                  <path id="Trazado_119484" data-name="Trazado 119484" d="M2356.705,480.159a3.421,3.421,0,0,1-2.849-1.517h0a3.426,3.426,0,0,1,.939-4.747l5.887-3.942a3.422,3.422,0,0,1,3.808,5.686l-5.887,3.942A3.4,3.4,0,0,1,2356.705,480.159Zm-1.13-2.667a1.356,1.356,0,0,0,1.879.372l5.887-3.942a1.354,1.354,0,0,0-1.507-2.25l-5.887,3.942a1.356,1.356,0,0,0-.372,1.879Z" transform="translate(-2353.279 -469.374)" fill="#6b184e"/>
                </g>
              </g>
            </g>
          </g>
        </g>
      </g>
      <g id="Grupo_120855" data-name="Grupo 120855" transform="translate(157.118 89.652)">
        <g id="Grupo_120839" data-name="Grupo 120839" transform="translate(0.528 0.527)">
          <g id="Grupo_120838" data-name="Grupo 120838" transform="translate(0 0)">
            <g id="Grupo_120837" data-name="Grupo 120837">
              <g id="Grupo_120836" data-name="Grupo 120836">
                <g id="Grupo_120835" data-name="Grupo 120835">
                  <rect id="Rectángulo_35180" data-name="Rectángulo 35180" width="4.776" height="11.861" rx="2.388" transform="translate(0 1.156) rotate(-14.002)" fill="#ed2e7a"/>
                </g>
              </g>
            </g>
          </g>
        </g>
        <g id="Grupo_120844" data-name="Grupo 120844" transform="translate(1.032 1.035)" opacity="0.65">
          <g id="Grupo_120843" data-name="Grupo 120843">
            <g id="Grupo_120842" data-name="Grupo 120842">
              <g id="Grupo_120841" data-name="Grupo 120841">
                <g id="Grupo_120840" data-name="Grupo 120840">
                  <path id="Trazado_119485" data-name="Trazado 119485" d="M1991.086,1143.284l-1.422-5.705a2.386,2.386,0,0,0-4.682.258l-.3-1.171a2.39,2.39,0,0,1,4.638-1.157l1.713,6.874A2.289,2.289,0,0,1,1991.086,1143.284Z" transform="translate(-1984.615 -1133.7)" fill="#fce5e5"/>
                </g>
              </g>
            </g>
          </g>
        </g>
        <g id="Grupo_120849" data-name="Grupo 120849" transform="translate(2.02 6.521)" opacity="0.3">
          <g id="Grupo_120848" data-name="Grupo 120848">
            <g id="Grupo_120847" data-name="Grupo 120847">
              <g id="Grupo_120846" data-name="Grupo 120846">
                <g id="Grupo_120845" data-name="Grupo 120845">
                  <path id="Trazado_119486" data-name="Trazado 119486" d="M2000.249,1206.13a2.385,2.385,0,0,1-2.892-1.74l-.8-3.21a2.389,2.389,0,0,0,4.64-1.142l.8,3.2A2.389,2.389,0,0,1,2000.249,1206.13Z" transform="translate(-1996.555 -1200.038)" fill="#6b184e"/>
                </g>
              </g>
            </g>
          </g>
        </g>
        <g id="Grupo_120854" data-name="Grupo 120854">
          <g id="Grupo_120853" data-name="Grupo 120853">
            <g id="Grupo_120852" data-name="Grupo 120852">
              <g id="Grupo_120851" data-name="Grupo 120851">
                <g id="Grupo_120850" data-name="Grupo 120850">
                  <path id="Trazado_119487" data-name="Trazado 119487" d="M1977.27,1134.908a3.428,3.428,0,0,1-3.32-2.594l-1.714-6.874a3.422,3.422,0,1,1,6.64-1.656l1.714,6.875a3.425,3.425,0,0,1-2.492,4.148h0A3.413,3.413,0,0,1,1977.27,1134.908Zm.327-2.108.25,1-.25-1a1.356,1.356,0,0,0,.986-1.642l-1.714-6.875a1.354,1.354,0,0,0-2.628.655l1.714,6.874A1.356,1.356,0,0,0,1977.6,1132.8Z" transform="translate(-1972.132 -1121.19)" fill="#6b184e"/>
                </g>
              </g>
            </g>
          </g>
        </g>
      </g>
      <g id="Grupo_120876" data-name="Grupo 120876" transform="translate(113.396 134.876)">
        <g id="Grupo_120860" data-name="Grupo 120860" transform="translate(0.612 0.613)">
          <g id="Grupo_120859" data-name="Grupo 120859" transform="translate(0 0)">
            <g id="Grupo_120858" data-name="Grupo 120858" transform="translate(0)">
              <g id="Grupo_120857" data-name="Grupo 120857">
                <g id="Grupo_120856" data-name="Grupo 120856">
                  <rect id="Rectángulo_35181" data-name="Rectángulo 35181" width="4.776" height="11.861" rx="2.388" transform="translate(0 0.937) rotate(-11.315)" fill="#ed2e7a"/>
                </g>
              </g>
            </g>
          </g>
        </g>
        <g id="Grupo_120865" data-name="Grupo 120865" transform="translate(1.031 1.035)" opacity="0.65">
          <g id="Grupo_120864" data-name="Grupo 120864">
            <g id="Grupo_120863" data-name="Grupo 120863">
              <g id="Grupo_120862" data-name="Grupo 120862">
                <g id="Grupo_120861" data-name="Grupo 120861">
                  <path id="Trazado_119488" data-name="Trazado 119488" d="M1462.039,1690.33l-1.153-5.766a2.387,2.387,0,0,0-4.689.038l-.24-1.183a2.39,2.39,0,0,1,4.688-.938l1.389,6.947A2.294,2.294,0,0,1,1462.039,1690.33Z" transform="translate(-1455.91 -1680.563)" fill="#fce5e5"/>
                </g>
              </g>
            </g>
          </g>
        </g>
        <g id="Grupo_120870" data-name="Grupo 120870" transform="translate(1.821 6.67)" opacity="0.3">
          <g id="Grupo_120869" data-name="Grupo 120869">
            <g id="Grupo_120868" data-name="Grupo 120868">
              <g id="Grupo_120867" data-name="Grupo 120867">
                <g id="Grupo_120866" data-name="Grupo 120866">
                  <path id="Trazado_119489" data-name="Trazado 119489" d="M1468.922,1754.734a2.384,2.384,0,0,1-2.807-1.873l-.651-3.245a2.389,2.389,0,0,0,4.689-.924l.645,3.231A2.389,2.389,0,0,1,1468.922,1754.734Z" transform="translate(-1465.464 -1748.693)" fill="#6b184e"/>
                </g>
              </g>
            </g>
          </g>
        </g>
        <g id="Grupo_120875" data-name="Grupo 120875">
          <g id="Grupo_120874" data-name="Grupo 120874">
            <g id="Grupo_120873" data-name="Grupo 120873">
              <g id="Grupo_120872" data-name="Grupo 120872">
                <g id="Grupo_120871" data-name="Grupo 120871">
                  <path id="Trazado_119490" data-name="Trazado 119490" d="M1448.251,1681.835a3.428,3.428,0,0,1-3.354-2.751l-1.39-6.947a3.422,3.422,0,0,1,6.71-1.343l1.39,6.947a3.422,3.422,0,0,1-2.684,4.027h0A3.434,3.434,0,0,1,1448.251,1681.835Zm-1.386-11.724a1.371,1.371,0,0,0-.268.027,1.354,1.354,0,0,0-1.062,1.594l1.39,6.947a1.356,1.356,0,0,0,1.594,1.062h0a1.354,1.354,0,0,0,1.062-1.594l-1.39-6.947a1.356,1.356,0,0,0-1.325-1.089Z" transform="translate(-1443.44 -1668.043)" fill="#6b184e"/>
                </g>
              </g>
            </g>
          </g>
        </g>
      </g>
      <g id="Grupo_120897" data-name="Grupo 120897" transform="translate(116.561 163.461)">
        <g id="Grupo_120881" data-name="Grupo 120881" transform="translate(0.079 0.079)">
          <g id="Grupo_120880" data-name="Grupo 120880" transform="translate(0 0)">
            <g id="Grupo_120879" data-name="Grupo 120879" transform="translate(0 0)">
              <g id="Grupo_120878" data-name="Grupo 120878">
                <g id="Grupo_120877" data-name="Grupo 120877">
                  <rect id="Rectángulo_35182" data-name="Rectángulo 35182" width="4.776" height="11.861" rx="2.388" transform="translate(9.49 0) rotate(53.141)" fill="#ed2e7a"/>
                </g>
              </g>
            </g>
          </g>
        </g>
        <g id="Grupo_120886" data-name="Grupo 120886" transform="translate(4.044 1.033)" opacity="0.65">
          <g id="Grupo_120885" data-name="Grupo 120885">
            <g id="Grupo_120884" data-name="Grupo 120884">
              <g id="Grupo_120883" data-name="Grupo 120883">
                <g id="Grupo_120882" data-name="Grupo 120882">
                  <path id="Trazado_119491" data-name="Trazado 119491" d="M1530.616,2035.136l4.705-3.526a2.387,2.387,0,0,0-2.057-4.214l.964-.727a2.39,2.39,0,0,1,2.868,3.825l-5.669,4.249A2.292,2.292,0,0,1,1530.616,2035.136Z" transform="translate(-1530.616 -2026.192)" fill="#fce5e5"/>
                </g>
              </g>
            </g>
          </g>
        </g>
        <g id="Grupo_120891" data-name="Grupo 120891" transform="translate(1.035 3.777)" opacity="0.3">
          <g id="Grupo_120890" data-name="Grupo 120890">
            <g id="Grupo_120889" data-name="Grupo 120889">
              <g id="Grupo_120888" data-name="Grupo 120888">
                <g id="Grupo_120887" data-name="Grupo 120887">
                  <path id="Trazado_119492" data-name="Trazado 119492" d="M1494.7,2064.694a2.384,2.384,0,0,1,.48-3.34l2.646-1.987a2.389,2.389,0,0,0,2.855,3.832l-2.637,1.975A2.389,2.389,0,0,1,1494.7,2064.694Z" transform="translate(-1494.228 -2059.367)" fill="#6b184e"/>
                </g>
              </g>
            </g>
          </g>
        </g>
        <g id="Grupo_120896" data-name="Grupo 120896">
          <g id="Grupo_120895" data-name="Grupo 120895">
            <g id="Grupo_120894" data-name="Grupo 120894">
              <g id="Grupo_120893" data-name="Grupo 120893">
                <g id="Grupo_120892" data-name="Grupo 120892">
                  <path id="Trazado_119493" data-name="Trazado 119493" d="M1485.144,2024.795a3.483,3.483,0,0,1-.492-.035,3.422,3.422,0,0,1-1.568-6.125l5.669-4.25a3.422,3.422,0,0,1,4.1,5.476l-5.669,4.25A3.4,3.4,0,0,1,1485.144,2024.795Zm5.659-9.027a1.343,1.343,0,0,0-.809.271l-5.669,4.25a1.355,1.355,0,0,0-.271,1.9h0a1.355,1.355,0,0,0,1.9.271l5.669-4.25a1.356,1.356,0,0,0-.815-2.438Z" transform="translate(-1481.714 -2013.7)" fill="#6b184e"/>
                </g>
              </g>
            </g>
          </g>
        </g>
      </g>
      <g id="Grupo_120918" data-name="Grupo 120918" transform="translate(207.966 76.579)">
        <g id="Grupo_120902" data-name="Grupo 120902" transform="translate(0.079 0.077)">
          <g id="Grupo_120901" data-name="Grupo 120901" transform="translate(0 0)">
            <g id="Grupo_120900" data-name="Grupo 120900">
              <g id="Grupo_120899" data-name="Grupo 120899">
                <g id="Grupo_120898" data-name="Grupo 120898">
                  <rect id="Rectángulo_35183" data-name="Rectángulo 35183" width="4.776" height="11.861" rx="2.388" transform="translate(9.49 0) rotate(53.141)" fill="#ed2e7a"/>
                </g>
              </g>
            </g>
          </g>
        </g>
        <g id="Grupo_120907" data-name="Grupo 120907" transform="translate(4.044 1.031)" opacity="0.65">
          <g id="Grupo_120906" data-name="Grupo 120906">
            <g id="Grupo_120905" data-name="Grupo 120905">
              <g id="Grupo_120904" data-name="Grupo 120904">
                <g id="Grupo_120903" data-name="Grupo 120903">
                  <path id="Trazado_119494" data-name="Trazado 119494" d="M2635.887,984.524l4.705-3.526a2.387,2.387,0,0,0-2.057-4.214l.965-.727a2.39,2.39,0,0,1,2.868,3.825l-5.669,4.249A2.3,2.3,0,0,1,2635.887,984.524Z" transform="translate(-2635.887 -975.58)" fill="#fce5e5"/>
                </g>
              </g>
            </g>
          </g>
        </g>
        <g id="Grupo_120912" data-name="Grupo 120912" transform="translate(1.035 3.775)" opacity="0.3">
          <g id="Grupo_120911" data-name="Grupo 120911">
            <g id="Grupo_120910" data-name="Grupo 120910">
              <g id="Grupo_120909" data-name="Grupo 120909">
                <g id="Grupo_120908" data-name="Grupo 120908">
                  <path id="Trazado_119495" data-name="Trazado 119495" d="M2599.975,1014.082a2.384,2.384,0,0,1,.48-3.34l2.646-1.987a2.389,2.389,0,0,0,2.855,3.832l-2.637,1.975A2.39,2.39,0,0,1,2599.975,1014.082Z" transform="translate(-2599.498 -1008.755)" fill="#6b184e"/>
                </g>
              </g>
            </g>
          </g>
        </g>
        <g id="Grupo_120917" data-name="Grupo 120917">
          <g id="Grupo_120916" data-name="Grupo 120916">
            <g id="Grupo_120915" data-name="Grupo 120915">
              <g id="Grupo_120914" data-name="Grupo 120914">
                <g id="Grupo_120913" data-name="Grupo 120913">
                  <path id="Trazado_119496" data-name="Trazado 119496" d="M2590.411,974.2a3.419,3.419,0,0,1-2.742-1.368h0a3.422,3.422,0,0,1,.685-4.79l5.669-4.25a3.422,3.422,0,0,1,4.1,5.476l-5.669,4.25A3.4,3.4,0,0,1,2590.411,974.2Zm5.663-9.024a1.348,1.348,0,0,0-.811.27l-5.668,4.25a1.354,1.354,0,0,0-.271,1.9h0a1.356,1.356,0,0,0,1.9.271l5.669-4.25a1.354,1.354,0,0,0-.814-2.437Z" transform="translate(-2586.984 -963.112)" fill="#6b184e"/>
                </g>
              </g>
            </g>
          </g>
        </g>
      </g>
      <g id="Grupo_120939" data-name="Grupo 120939" transform="translate(132.101 111.463)">
        <g id="Grupo_120923" data-name="Grupo 120923" transform="translate(0.053 0.053)">
          <g id="Grupo_120922" data-name="Grupo 120922" transform="translate(0 0)">
            <g id="Grupo_120921" data-name="Grupo 120921">
              <g id="Grupo_120920" data-name="Grupo 120920">
                <g id="Grupo_120919" data-name="Grupo 120919">
                  <rect id="Rectángulo_35184" data-name="Rectángulo 35184" width="4.776" height="11.861" rx="2.388" transform="translate(0 3.131) rotate(-40.96)" fill="#51c5da"/>
                </g>
              </g>
            </g>
          </g>
        </g>
        <g id="Grupo_120928" data-name="Grupo 120928" transform="translate(1.033 1.032)" opacity="0.65">
          <g id="Grupo_120927" data-name="Grupo 120927">
            <g id="Grupo_120926" data-name="Grupo 120926">
              <g id="Grupo_120925" data-name="Grupo 120925">
                <g id="Grupo_120924" data-name="Grupo 120924">
                  <path id="Trazado_119497" data-name="Trazado 119497" d="M1691.4,1404.373l-3.854-4.441a2.387,2.387,0,0,0-4.056,2.353l-.794-.91a2.39,2.39,0,0,1,3.61-3.134l4.644,5.351A2.3,2.3,0,0,1,1691.4,1404.373Z" transform="translate(-1682.113 -1397.418)" fill="#fce5e5"/>
                </g>
              </g>
            </g>
          </g>
        </g>
        <g id="Grupo_120933" data-name="Grupo 120933" transform="translate(4.094 4.716)" opacity="0.3">
          <g id="Grupo_120932" data-name="Grupo 120932">
            <g id="Grupo_120931" data-name="Grupo 120931">
              <g id="Grupo_120930" data-name="Grupo 120930">
                <g id="Grupo_120929" data-name="Grupo 120929">
                  <path id="Trazado_119498" data-name="Trazado 119498" d="M1724.661,1447.827a2.384,2.384,0,0,1-3.366-.24l-2.171-2.5a2.389,2.389,0,0,0,3.618-3.122l2.158,2.489A2.389,2.389,0,0,1,1724.661,1447.827Z" transform="translate(-1719.124 -1441.968)" fill="#6b184e"/>
                </g>
              </g>
            </g>
          </g>
        </g>
        <g id="Grupo_120938" data-name="Grupo 120938">
          <g id="Grupo_120937" data-name="Grupo 120937">
            <g id="Grupo_120936" data-name="Grupo 120936">
              <g id="Grupo_120935" data-name="Grupo 120935">
                <g id="Grupo_120934" data-name="Grupo 120934">
                  <path id="Trazado_119499" data-name="Trazado 119499" d="M1677.693,1397.129a3.415,3.415,0,0,1-2.586-1.177l-4.644-5.35a3.422,3.422,0,1,1,5.168-4.486l4.644,5.35a3.426,3.426,0,0,1-.341,4.827l-.678-.781.678.781A3.408,3.408,0,0,1,1677.693,1397.129ZM1673.044,1387a1.354,1.354,0,0,0-1.021,2.242l4.644,5.35a1.354,1.354,0,0,0,1.91.135h0a1.354,1.354,0,0,0,.135-1.91l-4.645-5.35a1.345,1.345,0,0,0-.927-.463Q1673.092,1387,1673.044,1387Z" transform="translate(-1669.624 -1384.937)" fill="#6b184e"/>
                </g>
              </g>
            </g>
          </g>
        </g>
      </g>
      <g id="Grupo_120960" data-name="Grupo 120960" transform="translate(161.673 40.109)">
        <g id="Grupo_120944" data-name="Grupo 120944" transform="translate(0.053 0.053)">
          <g id="Grupo_120943" data-name="Grupo 120943" transform="translate(0 0)">
            <g id="Grupo_120942" data-name="Grupo 120942">
              <g id="Grupo_120941" data-name="Grupo 120941">
                <g id="Grupo_120940" data-name="Grupo 120940">
                  <rect id="Rectángulo_35185" data-name="Rectángulo 35185" width="4.776" height="11.861" rx="2.388" transform="translate(0 3.131) rotate(-40.96)" fill="#51c5da"/>
                </g>
              </g>
            </g>
          </g>
        </g>
        <g id="Grupo_120949" data-name="Grupo 120949" transform="translate(1.033 1.032)" opacity="0.65">
          <g id="Grupo_120948" data-name="Grupo 120948">
            <g id="Grupo_120947" data-name="Grupo 120947">
              <g id="Grupo_120946" data-name="Grupo 120946">
                <g id="Grupo_120945" data-name="Grupo 120945">
                  <path id="Trazado_119500" data-name="Trazado 119500" d="M2048.986,541.549l-3.854-4.441a2.386,2.386,0,0,0-4.056,2.353l-.794-.91a2.39,2.39,0,0,1,3.61-3.134l4.643,5.351A2.3,2.3,0,0,1,2048.986,541.549Z" transform="translate(-2039.698 -534.594)" fill="#fce5e5"/>
                </g>
              </g>
            </g>
          </g>
        </g>
        <g id="Grupo_120954" data-name="Grupo 120954" transform="translate(4.094 4.716)" opacity="0.3">
          <g id="Grupo_120953" data-name="Grupo 120953">
            <g id="Grupo_120952" data-name="Grupo 120952">
              <g id="Grupo_120951" data-name="Grupo 120951">
                <g id="Grupo_120950" data-name="Grupo 120950">
                  <path id="Trazado_119501" data-name="Trazado 119501" d="M2082.246,585a2.384,2.384,0,0,1-3.366-.24l-2.171-2.5a2.389,2.389,0,0,0,3.618-3.122l2.158,2.489A2.389,2.389,0,0,1,2082.246,585Z" transform="translate(-2076.709 -579.144)" fill="#6b184e"/>
                </g>
              </g>
            </g>
          </g>
        </g>
        <g id="Grupo_120959" data-name="Grupo 120959">
          <g id="Grupo_120958" data-name="Grupo 120958">
            <g id="Grupo_120957" data-name="Grupo 120957">
              <g id="Grupo_120956" data-name="Grupo 120956">
                <g id="Grupo_120955" data-name="Grupo 120955">
                  <path id="Trazado_119502" data-name="Trazado 119502" d="M2035.277,534.305a3.414,3.414,0,0,1-2.586-1.177l-4.645-5.35a3.422,3.422,0,0,1,5.168-4.486l4.644,5.35a3.42,3.42,0,0,1-2.582,5.663Zm-4.649-10.125a1.354,1.354,0,0,0-1.021,2.242l4.644,5.35A1.354,1.354,0,0,0,2036.3,530l-4.645-5.35a1.346,1.346,0,0,0-.927-.463Q2030.677,524.18,2030.628,524.18Z" transform="translate(-2027.208 -522.113)" fill="#6b184e"/>
                </g>
              </g>
            </g>
          </g>
        </g>
      </g>
      <g id="Grupo_120981" data-name="Grupo 120981" transform="translate(229.903 99.238)">
        <g id="Grupo_120965" data-name="Grupo 120965" transform="translate(0.33 0.328)">
          <g id="Grupo_120964" data-name="Grupo 120964" transform="translate(0 0)">
            <g id="Grupo_120963" data-name="Grupo 120963">
              <g id="Grupo_120962" data-name="Grupo 120962">
                <g id="Grupo_120961" data-name="Grupo 120961">
                  <rect id="Rectángulo_35186" data-name="Rectángulo 35186" width="4.776" height="11.861" rx="2.388" transform="translate(4.32 0) rotate(21.357)" fill="#51c5da"/>
                </g>
              </g>
            </g>
          </g>
        </g>
        <g id="Grupo_120970" data-name="Grupo 120970" transform="translate(3.34 1.033)" opacity="0.65">
          <g id="Grupo_120969" data-name="Grupo 120969">
            <g id="Grupo_120968" data-name="Grupo 120968">
              <g id="Grupo_120967" data-name="Grupo 120967">
                <g id="Grupo_120966" data-name="Grupo 120966">
                  <path id="Trazado_119503" data-name="Trazado 119503" d="M2894.473,1260.213l2.142-5.476a2.387,2.387,0,0,0-3.968-2.5l.437-1.126a2.39,2.39,0,0,1,4.453,1.74l-2.581,6.6A2.294,2.294,0,0,1,2894.473,1260.213Z" transform="translate(-2892.647 -1249.594)" fill="#fce5e5"/>
                </g>
              </g>
            </g>
          </g>
        </g>
        <g id="Grupo_120975" data-name="Grupo 120975" transform="translate(1.037 6.068)" opacity="0.3">
          <g id="Grupo_120974" data-name="Grupo 120974">
            <g id="Grupo_120973" data-name="Grupo 120973">
              <g id="Grupo_120972" data-name="Grupo 120972">
                <g id="Grupo_120971" data-name="Grupo 120971">
                  <path id="Trazado_119504" data-name="Trazado 119504" d="M2866.3,1316.654a2.384,2.384,0,0,1-1.352-3.092l1.2-3.083a2.39,2.39,0,0,0,4.446,1.754l-1.2,3.068A2.39,2.39,0,0,1,2866.3,1316.654Z" transform="translate(-2864.788 -1310.479)" fill="#6b184e"/>
                </g>
              </g>
            </g>
          </g>
        </g>
        <g id="Grupo_120980" data-name="Grupo 120980">
          <g id="Grupo_120979" data-name="Grupo 120979">
            <g id="Grupo_120978" data-name="Grupo 120978">
              <g id="Grupo_120977" data-name="Grupo 120977">
                <g id="Grupo_120976" data-name="Grupo 120976">
                  <path id="Trazado_119505" data-name="Trazado 119505" d="M2855.674,1250.542a3.4,3.4,0,0,1-1.242-.235h0a3.422,3.422,0,0,1-1.94-4.433l2.58-6.6a3.422,3.422,0,0,1,6.373,2.492l-2.58,6.6A3.427,3.427,0,0,1,2855.674,1250.542Zm-.489-2.161a1.356,1.356,0,0,0,1.755-.768l2.58-6.6a1.354,1.354,0,0,0-2.523-.986l-2.58,6.6a1.354,1.354,0,0,0,.768,1.754Z" transform="translate(-2852.255 -1237.1)" fill="#6b184e"/>
                </g>
              </g>
            </g>
          </g>
        </g>
      </g>
      <g id="Grupo_121002" data-name="Grupo 121002" transform="translate(200.711 187.239)">
        <g id="Grupo_120986" data-name="Grupo 120986" transform="translate(0.088 0.088)">
          <g id="Grupo_120985" data-name="Grupo 120985" transform="translate(0 0)">
            <g id="Grupo_120984" data-name="Grupo 120984">
              <g id="Grupo_120983" data-name="Grupo 120983">
                <g id="Grupo_120982" data-name="Grupo 120982">
                  <rect id="Rectángulo_35187" data-name="Rectángulo 35187" width="4.776" height="11.861" rx="2.388" transform="matrix(0.81, 0.586, -0.586, 0.81, 6.956, 0)" fill="#51c5da"/>
                </g>
              </g>
            </g>
          </g>
        </g>
        <g id="Grupo_120991" data-name="Grupo 120991" transform="translate(4.699 1.034)" opacity="0.65">
          <g id="Grupo_120990" data-name="Grupo 120990">
            <g id="Grupo_120989" data-name="Grupo 120989">
              <g id="Grupo_120988" data-name="Grupo 120988">
                <g id="Grupo_120987" data-name="Grupo 120987">
                  <path id="Trazado_119506" data-name="Trazado 119506" d="M2556.087,2323.868l3.449-4.762a2.387,2.387,0,0,0-3.213-3.416l.705-.98a2.39,2.39,0,0,1,3.873,2.8l-4.156,5.738A2.3,2.3,0,0,1,2556.087,2323.868Z" transform="translate(-2556.087 -2313.724)" fill="#fce5e5"/>
                </g>
              </g>
            </g>
          </g>
        </g>
        <g id="Grupo_120996" data-name="Grupo 120996" transform="translate(1.035 5.08)" opacity="0.3">
          <g id="Grupo_120995" data-name="Grupo 120995">
            <g id="Grupo_120994" data-name="Grupo 120994">
              <g id="Grupo_120993" data-name="Grupo 120993">
                <g id="Grupo_120992" data-name="Grupo 120992">
                  <path id="Trazado_119507" data-name="Trazado 119507" d="M2512.769,2368.664a2.385,2.385,0,0,1-.531-3.333l1.939-2.681a2.389,2.389,0,0,0,3.862,2.814l-1.934,2.668A2.39,2.39,0,0,1,2512.769,2368.664Z" transform="translate(-2511.783 -2362.65)" fill="#6b184e"/>
                </g>
              </g>
            </g>
          </g>
        </g>
        <g id="Grupo_121001" data-name="Grupo 121001">
          <g id="Grupo_121000" data-name="Grupo 121000">
            <g id="Grupo_120999" data-name="Grupo 120999">
              <g id="Grupo_120998" data-name="Grupo 120998">
                <g id="Grupo_120997" data-name="Grupo 120997">
                  <path id="Trazado_119508" data-name="Trazado 119508" d="M2502.679,2313.807a3.4,3.4,0,0,1-2-.651h0a3.421,3.421,0,0,1-.765-4.778l4.155-5.739a3.422,3.422,0,1,1,5.543,4.013l-4.155,5.739a3.4,3.4,0,0,1-2.231,1.372A3.434,3.434,0,0,1,2502.679,2313.807Zm-.787-2.326a1.353,1.353,0,0,0,1.891-.3l4.155-5.738a1.354,1.354,0,0,0-2.194-1.589l-4.155,5.739a1.354,1.354,0,0,0,.3,1.891Z" transform="translate(-2499.264 -2301.223)" fill="#6b184e"/>
                </g>
              </g>
            </g>
          </g>
        </g>
      </g>
      <g id="Grupo_121023" data-name="Grupo 121023" transform="translate(118.824 34.822)">
        <g id="Grupo_121007" data-name="Grupo 121007" transform="translate(0.086 0.088)">
          <g id="Grupo_121006" data-name="Grupo 121006" transform="translate(0 0)">
            <g id="Grupo_121005" data-name="Grupo 121005">
              <g id="Grupo_121004" data-name="Grupo 121004">
                <g id="Grupo_121003" data-name="Grupo 121003">
                  <rect id="Rectángulo_35188" data-name="Rectángulo 35188" width="4.776" height="11.861" rx="2.388" transform="matrix(0.81, 0.586, -0.586, 0.81, 6.956, 0)" fill="#51c5da"/>
                </g>
              </g>
            </g>
          </g>
        </g>
        <g id="Grupo_121012" data-name="Grupo 121012" transform="translate(4.697 1.034)" opacity="0.65">
          <g id="Grupo_121011" data-name="Grupo 121011">
            <g id="Grupo_121010" data-name="Grupo 121010">
              <g id="Grupo_121009" data-name="Grupo 121009">
                <g id="Grupo_121008" data-name="Grupo 121008">
                  <path id="Trazado_119509" data-name="Trazado 119509" d="M1565.88,480.832l3.449-4.762a2.387,2.387,0,0,0-3.213-3.416l.706-.98a2.39,2.39,0,0,1,3.872,2.8l-4.156,5.738A2.294,2.294,0,0,1,1565.88,480.832Z" transform="translate(-1565.88 -470.688)" fill="#fce5e5"/>
                </g>
              </g>
            </g>
          </g>
        </g>
        <g id="Grupo_121017" data-name="Grupo 121017" transform="translate(1.033 5.08)" opacity="0.3">
          <g id="Grupo_121016" data-name="Grupo 121016">
            <g id="Grupo_121015" data-name="Grupo 121015">
              <g id="Grupo_121014" data-name="Grupo 121014">
                <g id="Grupo_121013" data-name="Grupo 121013">
                  <path id="Trazado_119510" data-name="Trazado 119510" d="M1522.562,525.628a2.384,2.384,0,0,1-.531-3.332l1.939-2.681a2.389,2.389,0,0,0,3.862,2.814L1525.9,525.1A2.389,2.389,0,0,1,1522.562,525.628Z" transform="translate(-1521.576 -519.614)" fill="#6b184e"/>
                </g>
              </g>
            </g>
          </g>
        </g>
        <g id="Grupo_121022" data-name="Grupo 121022">
          <g id="Grupo_121021" data-name="Grupo 121021">
            <g id="Grupo_121020" data-name="Grupo 121020">
              <g id="Grupo_121019" data-name="Grupo 121019">
                <g id="Grupo_121018" data-name="Grupo 121018">
                  <path id="Trazado_119511" data-name="Trazado 119511" d="M1512.5,470.768a3.4,3.4,0,0,1-2-.649h0a3.425,3.425,0,0,1-.765-4.778l4.155-5.739a3.422,3.422,0,1,1,5.543,4.014l-4.155,5.738A3.42,3.42,0,0,1,1512.5,470.768Zm-.79-2.324a1.356,1.356,0,0,0,1.891-.3l4.155-5.738a1.354,1.354,0,1,0-2.194-1.589l-4.155,5.738a1.356,1.356,0,0,0,.3,1.891Z" transform="translate(-1509.081 -458.187)" fill="#6b184e"/>
                </g>
              </g>
            </g>
          </g>
        </g>
      </g>
      <g id="Grupo_121028" data-name="Grupo 121028" transform="translate(161.221 259.223)">
        <g id="Grupo_121027" data-name="Grupo 121027">
          <g id="Grupo_121026" data-name="Grupo 121026">
            <g id="Grupo_121025" data-name="Grupo 121025">
              <g id="Grupo_121024" data-name="Grupo 121024">
                <path id="Trazado_119512" data-name="Trazado 119512" d="M2023.251,3174.549c-.061,0-.113,0-.155-.008a1.447,1.447,0,0,1,.1-2.891h.058a1.449,1.449,0,1,1,0,2.9Zm-.056,0h0Zm0,0h0Z" transform="translate(-2021.75 -3171.65)" fill="#6b184e"/>
              </g>
            </g>
          </g>
        </g>
      </g>
    </g>
  </g>
</svg>
