<svg xmlns="http://www.w3.org/2000/svg" width="83.999" height="84" viewBox="0 0 83.999 84">
  <g id="_35" data-name="35" transform="translate(-270.889 -671.36)">
    <circle id="Elipse_3961" data-name="Elipse 3961" cx="42" cy="42" r="42" transform="translate(270.889 671.36)" fill="#26c6da"/>
    <g id="Grupo_53512" data-name="Grupo 53512" transform="translate(296.903 684.574)">
      <path id="Trazado_100811" data-name="Trazado 100811" d="M342.017,732.431l-33.149-31.984a1.881,1.881,0,0,0-3.187,1.353v45.669a1.879,1.879,0,0,0,3.235,1.3l13.4-13.91,18.312.8a1.881,1.881,0,0,0,1.388-3.233Z" transform="translate(-305.682 -691.78)" fill="#fff"/>
      <path id="Trazado_100812" data-name="Trazado 100812" d="M343.781,696.894h-6.325v-6.626a1.236,1.236,0,0,0-1.235-1.235H334.08a1.236,1.236,0,0,0-1.235,1.235v6.626H326.52a1.235,1.235,0,0,0-1.235,1.235v2.008a1.236,1.236,0,0,0,1.235,1.235h6.325v6.693a1.236,1.236,0,0,0,1.235,1.235h2.141a1.236,1.236,0,0,0,1.235-1.235v-6.693h6.325a1.236,1.236,0,0,0,1.235-1.235v-2.008A1.235,1.235,0,0,0,343.781,696.894Z" transform="translate(-310.628 -689.033)" fill="#fff"/>
    </g>
  </g>
</svg>
