<svg xmlns="http://www.w3.org/2000/svg" width="84" height="84" viewBox="0 0 84 84">
  <g id="_36" data-name="36" transform="translate(-215.851 -726.864)">
    <circle id="Elipse_3962" data-name="Elipse 3962" cx="42" cy="42" r="42" transform="translate(215.851 726.864)" fill="#26c6da"/>
    <g id="Grupo_53517" data-name="Grupo 53517" transform="translate(225.651 741.299)">
      <path id="Trazado_100813" data-name="Trazado 100813" d="M232.293,765.26a10.29,10.29,0,0,1-1.546.918,1.258,1.258,0,0,0,.548,2.391,1.247,1.247,0,0,0,.548-.125,12.979,12.979,0,0,0,1.917-1.139,1.258,1.258,0,0,0-1.467-2.044Z" transform="translate(-219.17 -723.864)" fill="#fff"/>
      <path id="Trazado_100814" data-name="Trazado 100814" d="M233.7,758.55a1.258,1.258,0,0,0-.638,1.661,5.914,5.914,0,0,1-.1,4.869,1.258,1.258,0,1,0,2.325.96,8.41,8.41,0,0,0,.07-6.852A1.258,1.258,0,0,0,233.7,758.55Z" transform="translate(-217.876 -726.872)" fill="#fff"/>
      <path id="Trazado_100815" data-name="Trazado 100815" d="M240.756,756.609a4.884,4.884,0,0,0-2.691-4.073,12.259,12.259,0,0,0-5.7-1.581,1.258,1.258,0,0,0-.114,2.513c3.584.163,5.992,1.755,5.992,3.141,0,1.489-2.81,3.154-6.573,3.154s-6.572-1.665-6.572-3.154a1.372,1.372,0,0,1,.127-.568,1.258,1.258,0,0,0-2.3-1.027,3.887,3.887,0,0,0-.347,1.6c0,3.18,3.992,5.67,9.088,5.67S240.756,759.789,240.756,756.609Z" transform="translate(-222.578 -730.293)" fill="#fff"/>
      <path id="Trazado_100816" data-name="Trazado 100816" d="M286.043,776.9l-12.352-12.351c4.694-3.039,7.258-6.949,7.258-11.139,0-4.583-3.068-8.836-8.638-11.974-5.344-3.01-12.42-4.668-19.927-4.668s-14.583,1.658-19.926,4.668c-5.571,3.138-8.639,7.391-8.639,11.974,0,4.19,2.421,8.1,6.642,10.726.2.127.425.262.659.4l.23.14a1.257,1.257,0,1,0,1.308-2.147l-.23-.141c-.227-.137-.44-.268-.637-.391-3.467-2.158-5.456-5.288-5.456-8.59,0-3.635,2.612-7.11,7.357-9.783,4.972-2.8,11.611-4.344,18.692-4.344s13.72,1.543,18.692,4.344c4.745,2.673,7.359,6.148,7.359,9.783,0,3.428-2.324,6.712-6.566,9.317l-18.658-18.66a1.259,1.259,0,0,0-2.147.892l.036,22.56a46,46,0,0,1-5.329-.447,1.258,1.258,0,0,0-.358,2.49,48.657,48.657,0,0,0,5.692.475l.032,20.608a1.258,1.258,0,0,0,2.136.9l12.812-12.5,19.071,0h0a1.258,1.258,0,0,0,.889-2.148Z" transform="translate(-222.011 -736.772)" fill="#fff"/>
    </g>
  </g>
</svg>
