<svg xmlns="http://www.w3.org/2000/svg" width="84" height="84" viewBox="0 0 84 84">
  <g id="_37" data-name="37" transform="translate(-277.739 -726.865)">
    <circle id="Elipse_3963" data-name="Elipse 3963" cx="42" cy="42" r="42" transform="translate(277.739 726.864)" fill="#26c6da"/>
    <g id="Grupo_53519" data-name="Grupo 53519" transform="translate(294.525 745.615)">
      <path id="Trazado_100817" data-name="Trazado 100817" d="M322.857,753.268l-4.541-4.541a1.477,1.477,0,0,0-2.089,0L289.694,775.26a1.477,1.477,0,0,0,0,2.089l4.541,4.541a1.477,1.477,0,0,0,2.089,0l26.533-26.533a1.477,1.477,0,0,0,0-2.089Z" transform="translate(-289.261 -735.824)" fill="#fff"/>
      <path id="Trazado_100818" data-name="Trazado 100818" d="M293.322,751.671a5.036,5.036,0,0,1,5.029,5.029,1.477,1.477,0,0,0,2.955,0,5.035,5.035,0,0,1,5.029-5.029,1.477,1.477,0,0,0,1.477-1.477v-.016a1.477,1.477,0,0,0-1.477-1.477,5.034,5.034,0,0,1-5.029-5.029,1.477,1.477,0,1,0-2.955,0,5.034,5.034,0,0,1-5.029,5.029,1.477,1.477,0,0,0-1.477,1.477v.016A1.477,1.477,0,0,0,293.322,751.671Z" transform="translate(-288.08 -738.612)" fill="#fff"/>
      <path id="Trazado_100819" data-name="Trazado 100819" d="M328.526,748.031a6.826,6.826,0,0,1-6.817-6.818,1.477,1.477,0,1,0-2.955,0,6.827,6.827,0,0,1-6.818,6.818,1.477,1.477,0,0,0-1.477,1.477v.02a1.477,1.477,0,0,0,1.477,1.477,6.826,6.826,0,0,1,6.818,6.818,1.477,1.477,0,0,0,2.955,0,6.825,6.825,0,0,1,6.817-6.818A1.477,1.477,0,0,0,330,749.528v-.02A1.477,1.477,0,0,0,328.526,748.031Z" transform="translate(-279.576 -739.735)" fill="#fff"/>
      <path id="Trazado_100820" data-name="Trazado 100820" d="M321.511,764.083a4.715,4.715,0,0,1-4.71-4.71,1.478,1.478,0,0,0-2.956,0,4.715,4.715,0,0,1-4.709,4.71,1.477,1.477,0,0,0-1.477,1.477v.016a1.477,1.477,0,0,0,1.477,1.477,4.715,4.715,0,0,1,4.709,4.71,1.478,1.478,0,0,0,2.956,0,4.715,4.715,0,0,1,4.71-4.71,1.477,1.477,0,0,0,1.477-1.477v-.016A1.477,1.477,0,0,0,321.511,764.083Z" transform="translate(-280.855 -731.437)" fill="#fff"/>
    </g>
  </g>
</svg>
