<svg xmlns="http://www.w3.org/2000/svg" width="338" height="227.27" viewBox="0 0 338 227.27">
  <g id="_74" data-name="74" transform="translate(606 -10508)">
    <g id="Grupo_121205" data-name="Grupo 121205" transform="translate(-606 10510)">
      <path id="Trazado_119516" data-name="Trazado 119516" d="M427.164,723.458a112.559,112.559,0,0,1,56.318-97.527,112.634,112.634,0,1,0,0,195.057A112.562,112.562,0,0,1,427.164,723.458Z" transform="translate(-314.529 -610.823)" fill="#ffce1c"/>
      <path id="Trazado_119517" data-name="Trazado 119517" d="M466.934,610.823a112.068,112.068,0,0,0-56.316,15.107,112.608,112.608,0,0,1,0,195.057,112.629,112.629,0,1,0,56.316-210.164Z" transform="translate(-241.665 -610.823)" fill="#ffce1c"/>
    </g>
    <rect id="Rectángulo_37138" data-name="Rectángulo 37138" width="338" height="225" transform="translate(-606 10508)" fill="none"/>
  </g>
</svg>
