<svg xmlns="http://www.w3.org/2000/svg" width="45.122" height="58.283" viewBox="0 0 45.122 58.283">
  <g id="ilustrador" transform="translate(-8 -1)">
    <path id="Trazado_103697" data-name="Trazado 103697" d="M9,2H52.242V58.4H9Z" transform="translate(-0.06 -0.06)" fill="#abb8be"/>
    <path id="Trazado_103698" data-name="Trazado 103698" d="M13,6H48.722V34.2H13Z" transform="translate(-0.3 -0.3)" fill="#fff"/>
    <path id="Trazado_103699" data-name="Trazado 103699" d="M9,40H52.242V60.681H9Z" transform="translate(-0.06 -2.338)" fill="#f3a845"/>
    <path id="Trazado_103700" data-name="Trazado 103700" d="M9,40V57.861H45.662a2.82,2.82,0,0,0,2.82-2.82V40Z" transform="translate(-0.06 -2.338)" fill="#eecc61"/>
    <path id="Trazado_103701" data-name="Trazado 103701" d="M31.64,10,26,20.341l.316.47a9.313,9.313,0,0,1,1.564,5.17H35.4a9.313,9.313,0,0,1,1.564-5.17l.316-.47Z" transform="translate(-1.079 -0.54)" fill="#939393"/>
    <path id="Trazado_103702" data-name="Trazado 103702" d="M27,27h9.4v3.76H27Z" transform="translate(-1.139 -1.559)" fill="#f3a845"/>
    <path id="Trazado_103703" data-name="Trazado 103703" d="M29,31l.342,4.7H34.3L34.64,31Z" transform="translate(-1.259 -1.798)" fill="#eecc61"/>
    <g id="Grupo_54408" data-name="Grupo 54408" transform="translate(10.82 17.735)">
      <ellipse id="Elipse_4102" data-name="Elipse 4102" cx="1.731" cy="2.02" rx="1.731" ry="2.02" transform="translate(17.954 0)" fill="#fff"/>
      <path id="Trazado_103704" data-name="Trazado 103704" d="M11.94,49.52a.94.94,0,0,1-.94-.94V42.94a.94.94,0,1,1,1.88,0v5.64A.94.94,0,0,1,11.94,49.52Z" transform="translate(-11 -20.193)" fill="#fff"/>
      <path id="Trazado_103705" data-name="Trazado 103705" d="M11.94,54.82a.94.94,0,0,1-.94-.94v-.94a.94.94,0,1,1,1.88,0v.94A.94.94,0,0,1,11.94,54.82Z" transform="translate(-11 -20.792)" fill="#fff"/>
    </g>
    <path id="Trazado_103706" data-name="Trazado 103706" d="M12.94,35.082H48.662a.94.94,0,0,0,.94-.94V5.94a.94.94,0,0,0-.94-.94H12.94a.94.94,0,0,0-.94.94v28.2A.94.94,0,0,0,12.94,35.082ZM26.259,19.993l3.6-6.606v4.007a2.82,2.82,0,1,0,1.88,0V13.387l3.6,6.6a10.21,10.21,0,0,0-1.675,4.749H27.935a10.21,10.21,0,0,0-1.676-4.748Zm5.482.048a.94.94,0,1,1-.94-.94A.94.94,0,0,1,31.741,20.041Zm-4.7,6.58h7.52V28.5h-7.52Zm5.569,3.76-.2,2.82H29.2l-.2-2.82ZM13.88,6.88H47.722V33.2H34.291l.2-2.82H35.5a.94.94,0,0,0,.94-.94v-3.76a.933.933,0,0,0-.872-.926,8.343,8.343,0,0,1,1.342-3.719l.316-.47a.94.94,0,0,0,.043-.972L31.63,9.254a.978.978,0,0,0-1.651,0l-5.64,10.341a.94.94,0,0,0,.043.972l.316.47a8.343,8.343,0,0,1,1.339,3.719.933.933,0,0,0-.876.926v3.76a.94.94,0,0,0,.94.94h1.006l.2,2.82H13.88Z" transform="translate(-0.24 -0.24)"/>
    <path id="Trazado_103707" data-name="Trazado 103707" d="M45.82,13.7H47.7V9.94A.94.94,0,0,0,46.76,9H43v1.88h2.82Z" transform="translate(-2.098 -0.48)"/>
    <path id="Trazado_103708" data-name="Trazado 103708" d="M16,9.94V13.7h1.88V10.88H20.7V9H16.94A.94.94,0,0,0,16,9.94Z" transform="translate(-0.48 -0.48)"/>
    <path id="Trazado_103709" data-name="Trazado 103709" d="M47.7,31.76V28H45.82v2.82H43V32.7h3.76A.94.94,0,0,0,47.7,31.76Z" transform="translate(-2.098 -1.619)"/>
    <path id="Trazado_103710" data-name="Trazado 103710" d="M17.88,28H16v3.76a.94.94,0,0,0,.94.94H20.7V30.82H17.88Z" transform="translate(-0.48 -1.619)"/>
    <path id="Trazado_103711" data-name="Trazado 103711" d="M27.76,44A3.76,3.76,0,0,0,24,47.76v9.4h1.88V53.4h3.76v3.76h1.88v-9.4A3.76,3.76,0,0,0,27.76,44Zm-1.88,7.52V47.76a1.88,1.88,0,1,1,3.76,0v3.76Z" transform="translate(-0.959 -2.578)"/>
    <path id="Trazado_103712" data-name="Trazado 103712" d="M34,45.88h1.88v9.4H34v1.88h5.64v-1.88H37.76v-9.4h1.88V44H34Z" transform="translate(-1.559 -2.578)"/>
    <path id="Trazado_103713" data-name="Trazado 103713" d="M52.182,1H8.94A.94.94,0,0,0,8,1.94v56.4a.94.94,0,0,0,.94.94H52.182a.94.94,0,0,0,.94-.94V1.94A.94.94,0,0,0,52.182,1Zm-.94,1.88V36.722H9.88V2.88ZM9.88,57.4V38.6H51.242V57.4Z"/>
  </g>
</svg>
