<svg xmlns="http://www.w3.org/2000/svg" width="400" height="339" viewBox="0 0 400 339">
  <g id="_14" data-name="14" transform="translate(-180 -484)">
    <g id="Grupo_53382" data-name="Grupo 53382" transform="translate(180 484.354)">
      <g id="BG" transform="translate(0 -0.354)">
        <rect id="Rectángulo_5058" data-name="Rectángulo 5058" width="400" height="339" fill="#ffc800"/>
      </g>
      <g id="graphics" transform="translate(107 95.647)">
        <g id="Grupo_53380" data-name="Grupo 53380" transform="translate(-53.24 -42.094)">
          <path id="Trazado_99520" data-name="Trazado 99520" d="M540.779,208.494c-15.114-25.933-48.485-39.913-87.1-25.9-7.6,2.757-17.571,6.752-26.9,10.594l34.1-45.12a7.554,7.554,0,0,0-12.053-9.108L402.7,199.993l-46.126-61.036a7.554,7.554,0,0,0-12.053,9.108l34.961,46.261c-10.082-4.176-21.3-8.7-29.661-11.736-38.284-13.888-71.829-.295-87.1,25.9a55.817,55.817,0,0,0,20.094,76.293c18.319,10.677,41.5,11.223,63.193-.238-7.8,27.068.735,51.636,15.734,66.635a56.449,56.449,0,0,0,40.231,16.624h.124a56.389,56.389,0,0,0,40.138-16.624c15.8-15.794,22.741-40.159,15.209-66.657,22.172,11.732,45.341,10.69,63.235.261A55.817,55.817,0,0,0,540.779,208.494ZM358.109,303.141h87.263a52.1,52.1,0,0,1-2.337,18.572H360.682A50.887,50.887,0,0,1,358.109,303.141Zm2.62-15.052c2.54-8.386,6.087-14.8,10.642-21.632h61.237a82.569,82.569,0,0,1,10.153,21.632Zm41.05-61.651c5.372,7.144,13.489,17.779,21.109,27.112H381.1C385.346,248.291,391.733,240,401.779,226.439ZM313.4,275.08a42.862,42.862,0,0,1-21.567-5.749,37.954,37.954,0,0,1-13.65-51.828c12.841-22.028,39.422-27.571,65.542-18.095,12.17,4.416,31.238,12.372,42.971,17.346C365.511,245.317,344.977,275.08,313.4,275.08ZM402.1,352.7h-.215c-12.448,0-24.264-5.293-33.1-16.271h66.391A41.621,41.621,0,0,1,402.1,352.7ZM511.674,269.33c-21.005,12.244-47.113,4.348-66.107-16.717-8.573-9.507-21.058-25.749-28.7-35.884,11.738-4.976,30.763-12.912,42.912-17.321,25.745-9.339,52.551-4.194,65.543,18.1A37.953,37.953,0,0,1,511.674,269.33Z" transform="translate(-255.131 -135.956)" fill="#42210b"/>
          <path id="Trazado_99521" data-name="Trazado 99521" d="M317.662,289.143a42.861,42.861,0,0,1-21.567-5.749,37.954,37.954,0,0,1-13.65-51.828c12.841-22.028,39.422-27.571,65.542-18.095,12.17,4.416,31.238,12.373,42.971,17.346C369.777,259.381,349.242,289.144,317.662,289.143Z" transform="translate(-259.397 -150.02)" fill="#d39c00"/>
          <g id="Grupo_53379" data-name="Grupo 53379" transform="translate(102.928 90.482)">
            <path id="Trazado_99522" data-name="Trazado 99522" d="M431.8,248c-10.045,13.564-16.433,21.852-20.678,27.112H431.8Z" transform="translate(-388.079 -248.002)" fill="#d39c00"/>
            <path id="Trazado_99523" data-name="Trazado 99523" d="M426.943,297.558H396.536c-4.555,6.831-8.1,13.245-10.642,21.632h41.049Z" transform="translate(-383.225 -257.539)" fill="#d39c00"/>
            <path id="Trazado_99524" data-name="Trazado 99524" d="M426.307,342.984H382.638a50.891,50.891,0,0,0,2.573,18.572h41.1Z" transform="translate(-382.588 -266.282)" fill="#d39c00"/>
            <path id="Trazado_99525" data-name="Trazado 99525" d="M428.863,384.2H395.869c8.812,10.946,20.585,16.238,32.994,16.268Z" transform="translate(-385.144 -274.214)" fill="#d39c00"/>
          </g>
          <path id="Trazado_99526" data-name="Trazado 99526" d="M559.148,242.029c-2.468-3.975-7.31-7.983-12.567-7.983a6.19,6.19,0,1,1,0-12.38c10.7,0,18.938,7.147,23.086,13.836a6.189,6.189,0,1,1-10.519,6.526Z" transform="translate(-310.029 -152.451)" fill="#fff"/>
        </g>
      </g>
    </g>
  </g>
</svg>
